<?xml version="1.0" encoding="UTF-8" standalone="no"?>
<!DOCTYPE svg PUBLIC "-//W3C//DTD SVG 1.1//EN"
 "http://www.w3.org/Graphics/SVG/1.1/DTD/svg11.dtd">
<!-- Generated by graphviz version 2.26.3 (20100126.1600)
 -->
<!-- Title: G Pages: 1 -->
<svg width="1150pt" height="784pt"
 viewBox="0.00 0.00 1150.00 784.00" xmlns="http://www.w3.org/2000/svg" xmlns:xlink="http://www.w3.org/1999/xlink">
<g id="graph1" class="graph" transform="scale(1 1) rotate(0) translate(4 780)">
<title>G</title>
<polygon fill="white" stroke="white" points="-4,5 -4,-780 1147,-780 1147,5 -4,5"/>
<g id="graph2" class="cluster"><title>cluster_global</title>
<polyline fill="none" stroke="gray" points="20,-100 1122,-100 "/>
<path fill="none" stroke="gray" d="M1122,-100C1128,-100 1134,-106 1134,-112"/>
<polyline fill="none" stroke="gray" points="1134,-112 1134,-756 "/>
<path fill="none" stroke="gray" d="M1134,-756C1134,-762 1128,-768 1122,-768"/>
<polyline fill="none" stroke="gray" points="1122,-768 20,-768 "/>
<path fill="none" stroke="gray" d="M20,-768C14,-768 8,-762 8,-756"/>
<polyline fill="none" stroke="gray" points="8,-756 8,-112 "/>
<path fill="none" stroke="gray" d="M8,-112C8,-106 14,-100 20,-100"/>
<text text-anchor="middle" x="571" y="-754.1" font-family="Times Roman,serif" font-size="11.00" fill="gray">global</text>
</g>
<!-- \\IMslsRegistryInstance -->
<g id="node2" class="node"><title>\\IMslsRegistryInstance</title>
<a xlink:href="MultisiteLanguageSwitcher.html" xlink:title="IMslsRegistryInstance" target="_parent">
<polygon fill="none" stroke="black" points="174,-468 16,-468 16,-432 174,-432 174,-468"/>
<text text-anchor="middle" x="95" y="-447.1" font-family="Courier,monospace" font-size="11.00">IMslsRegistryInstance</text>
</a>
</g>
<!-- \\MslsAutoloader -->
<g id="node3" class="node"><title>\\MslsAutoloader</title>
<a xlink:href="MultisiteLanguageSwitcher.html" xlink:title="MslsAutoloader" target="_parent">
<polygon fill="none" stroke="black" points="1085,-738 975,-738 975,-702 1085,-702 1085,-738"/>
<text text-anchor="middle" x="1030" y="-717.1" font-family="Courier,monospace" font-size="11.00">MslsAutoloader</text>
</a>
</g>
<!-- \\MslsLinkImageOnly -->
<g id="node4" class="node"><title>\\MslsLinkImageOnly</title>
<a xlink:href="includes.MslsLinkImageOnly.html" xlink:title="MslsLinkImageOnly" target="_parent">
<polygon fill="none" stroke="black" points="587,-684 457,-684 457,-648 587,-648 587,-684"/>
<text text-anchor="middle" x="522" y="-663.1" font-family="Courier,monospace" font-size="11.00">MslsLinkImageOnly</text>
</a>
</g>
<!-- \\MslsLink -->
<g id="node17" class="node"><title>\\MslsLink</title>
<a xlink:href="includes.MslsLink.html" xlink:title="MslsLink" target="_parent">
<polygon fill="none" stroke="black" points="350,-630 280,-630 280,-594 350,-594 350,-630"/>
<text text-anchor="middle" x="315" y="-609.1" font-family="Courier,monospace" font-size="11.00">MslsLink</text>
</a>
</g>
<!-- \\MslsLinkImageOnly&#45;&gt;\\MslsLink -->
<g id="edge3" class="edge"><title>\\MslsLinkImageOnly&#45;&gt;\\MslsLink</title>
<path fill="none" stroke="black" d="M456.219,-648.84C425.116,-640.726 388.747,-631.238 360.708,-623.924"/>
<polygon fill="none" stroke="black" points="361.339,-620.471 350.779,-621.334 359.572,-627.245 361.339,-620.471"/>
</g>
<!-- \\MslsOptionsQueryPostType -->
<g id="node5" class="node"><title>\\MslsOptionsQueryPostType</title>
<a xlink:href="includes.MslsOptionsQueryPostType.html" xlink:title="MslsOptionsQueryPostType" target="_parent">
<polygon fill="none" stroke="black" points="850,-468 672,-468 672,-432 850,-432 850,-468"/>
<text text-anchor="middle" x="761" y="-447.1" font-family="Courier,monospace" font-size="11.00">MslsOptionsQueryPostType</text>
</a>
</g>
<!-- \\MslsOptionsQuery -->
<g id="node37" class="node"><title>\\MslsOptionsQuery</title>
<a xlink:href="includes.MslsOptionsQuery.html" xlink:title="MslsOptionsQuery" target="_parent">
<polygon fill="none" stroke="black" points="584,-522 460,-522 460,-486 584,-486 584,-522"/>
<text text-anchor="middle" x="522" y="-501.1" font-family="Courier,monospace" font-size="11.00">MslsOptionsQuery</text>
</a>
</g>
<!-- \\MslsOptionsQueryPostType&#45;&gt;\\MslsOptionsQuery -->
<g id="edge5" class="edge"><title>\\MslsOptionsQueryPostType&#45;&gt;\\MslsOptionsQuery</title>
<path fill="none" stroke="black" d="M681.084,-468.056C653.166,-474.364 621.998,-481.406 594.699,-487.574"/>
<polygon fill="none" stroke="black" points="593.813,-484.186 584.83,-489.804 595.356,-491.014 593.813,-484.186"/>
</g>
<!-- \\MslsAdmin -->
<g id="node6" class="node"><title>\\MslsAdmin</title>
<a xlink:href="includes.MslsAdmin.html" xlink:title="MslsAdmin" target="_parent">
<polygon fill="none" stroke="black" points="799,-144 723,-144 723,-108 799,-108 799,-144"/>
<text text-anchor="middle" x="761" y="-123.1" font-family="Courier,monospace" font-size="11.00">MslsAdmin</text>
</a>
</g>
<!-- \\MslsMain -->
<g id="node22" class="node"><title>\\MslsMain</title>
<a xlink:href="includes.MslsMain.html" xlink:title="«abstract»&lt;br/&gt;MslsMain" target="_parent">
<polygon fill="none" stroke="black" points="564,-306 480,-306 480,-270 564,-270 564,-306"/>
<text text-anchor="start" x="488" y="-293.433" font-family="Courier,monospace" font-size="11.00">«abstract»</text>
<text text-anchor="start" x="494.5" y="-280.233" font-family="Courier,monospace" font-size="11.00">MslsMain</text>
</a>
</g>
<!-- \\MslsAdmin&#45;&gt;\\MslsMain -->
<g id="edge7" class="edge"><title>\\MslsAdmin&#45;&gt;\\MslsMain</title>
<path fill="none" stroke="black" d="M722.282,-131.537C702.69,-135.503 679.083,-142.129 660,-153 610.754,-181.054 566.354,-230.95 541.885,-261.592"/>
<polygon fill="none" stroke="black" points="538.949,-259.664 535.524,-269.69 544.454,-263.987 538.949,-259.664"/>
</g>
<!-- \\MslsOptionsTaxTermCategory -->
<g id="node7" class="node"><title>\\MslsOptionsTaxTermCategory</title>
<a xlink:href="includes.MslsOptionsTaxTermCategory.html" xlink:title="MslsOptionsTaxTermCategory" target="_parent">
<polygon fill="none" stroke="black" points="1126,-684 934,-684 934,-648 1126,-648 1126,-684"/>
<text text-anchor="middle" x="1030" y="-663.1" font-family="Courier,monospace" font-size="11.00">MslsOptionsTaxTermCategory</text>
</a>
</g>
<!-- \\MslsOptionsTaxTerm -->
<g id="node9" class="node"><title>\\MslsOptionsTaxTerm</title>
<a xlink:href="includes.MslsOptionsTaxTerm.html" xlink:title="MslsOptionsTaxTerm" target="_parent">
<polygon fill="none" stroke="black" points="830,-738 692,-738 692,-702 830,-702 830,-738"/>
<text text-anchor="middle" x="761" y="-717.1" font-family="Courier,monospace" font-size="11.00">MslsOptionsTaxTerm</text>
</a>
</g>
<!-- \\MslsOptionsTaxTermCategory&#45;&gt;\\MslsOptionsTaxTerm -->
<g id="edge9" class="edge"><title>\\MslsOptionsTaxTermCategory&#45;&gt;\\MslsOptionsTaxTerm</title>
<path fill="none" stroke="black" d="M940.053,-684.056C907.665,-690.558 871.392,-697.839 840.008,-704.14"/>
<polygon fill="none" stroke="black" points="839.116,-700.749 830.001,-706.149 840.494,-707.612 839.116,-700.749"/>
</g>
<!-- \\MslsLinkTextImage -->
<g id="node8" class="node"><title>\\MslsLinkTextImage</title>
<a xlink:href="includes.MslsLinkTextImage.html" xlink:title="MslsLinkTextImage" target="_parent">
<polygon fill="none" stroke="black" points="587,-630 457,-630 457,-594 587,-594 587,-630"/>
<text text-anchor="middle" x="522" y="-609.1" font-family="Courier,monospace" font-size="11.00">MslsLinkTextImage</text>
</a>
</g>
<!-- \\MslsLinkTextImage&#45;&gt;\\MslsLink -->
<g id="edge11" class="edge"><title>\\MslsLinkTextImage&#45;&gt;\\MslsLink</title>
<path fill="none" stroke="black" d="M456.219,-612C425.252,-612 389.066,-612 361.077,-612"/>
<polygon fill="none" stroke="black" points="360.779,-608.5 350.779,-612 360.779,-615.5 360.779,-608.5"/>
</g>
<!-- \\MslsOptionsTax -->
<g id="node25" class="node"><title>\\MslsOptionsTax</title>
<a xlink:href="includes.MslsOptionsTax.html" xlink:title="MslsOptionsTax" target="_parent">
<polygon fill="none" stroke="black" points="577,-576 467,-576 467,-540 577,-540 577,-576"/>
<text text-anchor="middle" x="522" y="-555.1" font-family="Courier,monospace" font-size="11.00">MslsOptionsTax</text>
</a>
</g>
<!-- \\MslsOptionsTaxTerm&#45;&gt;\\MslsOptionsTax -->
<g id="edge13" class="edge"><title>\\MslsOptionsTaxTerm&#45;&gt;\\MslsOptionsTax</title>
<path fill="none" stroke="black" d="M691.976,-708.729C680.646,-704.919 669.514,-699.821 660,-693 613.116,-659.387 632.655,-621.523 588,-585 586.616,-583.868 585.179,-582.779 583.698,-581.729"/>
<polygon fill="none" stroke="black" points="585.147,-578.507 574.816,-576.157 581.427,-584.436 585.147,-578.507"/>
</g>
<!-- \\MslsOptionsQueryAuthor -->
<g id="node10" class="node"><title>\\MslsOptionsQueryAuthor</title>
<a xlink:href="includes.MslsOptionsQueryAuthor.html" xlink:title="MslsOptionsQueryAuthor" target="_parent">
<polygon fill="none" stroke="black" points="843,-684 679,-684 679,-648 843,-648 843,-684"/>
<text text-anchor="middle" x="761" y="-663.1" font-family="Courier,monospace" font-size="11.00">MslsOptionsQueryAuthor</text>
</a>
</g>
<!-- \\MslsOptionsQueryAuthor&#45;&gt;\\MslsOptionsQuery -->
<g id="edge15" class="edge"><title>\\MslsOptionsQueryAuthor&#45;&gt;\\MslsOptionsQuery</title>
<path fill="none" stroke="black" d="M678.464,-649.465C671.934,-646.529 665.679,-643.072 660,-639 613.116,-605.387 632.655,-567.523 588,-531 586.616,-529.868 585.179,-528.779 583.698,-527.729"/>
<polygon fill="none" stroke="black" points="585.147,-524.507 574.816,-522.157 581.427,-530.436 585.147,-524.507"/>
</g>
<!-- \\MslsOptionsQueryMonth -->
<g id="node11" class="node"><title>\\MslsOptionsQueryMonth</title>
<a xlink:href="includes.MslsOptionsQueryMonth.html" xlink:title="MslsOptionsQueryMonth" target="_parent">
<polygon fill="none" stroke="black" points="840,-630 682,-630 682,-594 840,-594 840,-630"/>
<text text-anchor="middle" x="761" y="-609.1" font-family="Courier,monospace" font-size="11.00">MslsOptionsQueryMonth</text>
</a>
</g>
<!-- \\MslsOptionsQueryMonth&#45;&gt;\\MslsOptionsQuery -->
<g id="edge17" class="edge"><title>\\MslsOptionsQueryMonth&#45;&gt;\\MslsOptionsQuery</title>
<path fill="none" stroke="black" d="M681.904,-594.021C674.356,-591.368 666.938,-588.372 660,-585 624.023,-567.516 622.794,-550.733 588,-531 585.2,-529.412 582.288,-527.868 579.316,-526.376"/>
<polygon fill="none" stroke="black" points="580.802,-523.207 570.269,-522.06 577.788,-529.525 580.802,-523.207"/>
</g>
<!-- \\MslsContentTypes -->
<g id="node12" class="node"><title>\\MslsContentTypes</title>
<a xlink:href="includes.MslsContentTypes.html" xlink:title="MslsContentTypes" target="_parent">
<polygon fill="none" stroke="black" points="157,-414 33,-414 33,-378 157,-378 157,-414"/>
<text text-anchor="middle" x="95" y="-393.1" font-family="Courier,monospace" font-size="11.00">MslsContentTypes</text>
</a>
</g>
<!-- \\MslsCustomColumn -->
<g id="node13" class="node"><title>\\MslsCustomColumn</title>
<a xlink:href="includes.MslsCustomColumn.html" xlink:title="MslsCustomColumn" target="_parent">
<polygon fill="none" stroke="black" points="823,-414 699,-414 699,-378 823,-378 823,-414"/>
<text text-anchor="middle" x="761" y="-393.1" font-family="Courier,monospace" font-size="11.00">MslsCustomColumn</text>
</a>
</g>
<!-- \\MslsCustomColumn&#45;&gt;\\MslsMain -->
<g id="edge19" class="edge"><title>\\MslsCustomColumn&#45;&gt;\\MslsMain</title>
<path fill="none" stroke="black" d="M698.427,-382.094C685.505,-378.442 672.141,-374.076 660,-369 622.764,-353.433 583.348,-329.448 556.218,-311.613"/>
<polygon fill="none" stroke="black" points="558.125,-308.678 547.86,-306.057 554.25,-314.508 558.125,-308.678"/>
</g>
<!-- \\MslsCustomColumnTaxonomy -->
<g id="node14" class="node"><title>\\MslsCustomColumnTaxonomy</title>
<a xlink:href="includes.MslsCustomColumnTaxonomy.html" xlink:title="MslsCustomColumnTaxonomy" target="_parent">
<polygon fill="none" stroke="black" points="1119,-522 941,-522 941,-486 1119,-486 1119,-522"/>
<text text-anchor="middle" x="1030" y="-501.1" font-family="Courier,monospace" font-size="11.00">MslsCustomColumnTaxonomy</text>
</a>
</g>
<!-- \\MslsCustomColumnTaxonomy&#45;&gt;\\MslsCustomColumn -->
<g id="edge21" class="edge"><title>\\MslsCustomColumnTaxonomy&#45;&gt;\\MslsCustomColumn</title>
<path fill="none" stroke="black" d="M955.331,-485.969C947.982,-483.317 940.752,-480.336 934,-477 898.137,-459.284 897.977,-440.484 862,-423 853.001,-418.627 843.194,-414.885 833.345,-411.705"/>
<polygon fill="none" stroke="black" points="834.096,-408.275 823.51,-408.711 832.057,-414.972 834.096,-408.275"/>
</g>
<!-- \\MslsGetSet -->
<g id="node15" class="node"><title>\\MslsGetSet</title>
<a xlink:href="includes.MslsGetSet.html" xlink:title="MslsGetSet" target="_parent">
<polygon fill="none" stroke="black" points="137,-589 53,-589 53,-553 137,-553 137,-589"/>
<text text-anchor="middle" x="95" y="-568.1" font-family="Courier,monospace" font-size="11.00">MslsGetSet</text>
</a>
</g>
<!-- \\MslsLinkTextOnly -->
<g id="node16" class="node"><title>\\MslsLinkTextOnly</title>
<a xlink:href="includes.MslsLinkTextOnly.html" xlink:title="MslsLinkTextOnly" target="_parent">
<polygon fill="none" stroke="black" points="584,-738 460,-738 460,-702 584,-702 584,-738"/>
<text text-anchor="middle" x="522" y="-717.1" font-family="Courier,monospace" font-size="11.00">MslsLinkTextOnly</text>
</a>
</g>
<!-- \\MslsLinkTextOnly&#45;&gt;\\MslsLink -->
<g id="edge23" class="edge"><title>\\MslsLinkTextOnly&#45;&gt;\\MslsLink</title>
<path fill="none" stroke="black" d="M475.496,-701.888C468.889,-699.051 462.228,-696.046 456,-693 419.958,-675.373 380.478,-652.353 352.486,-635.361"/>
<polygon fill="none" stroke="black" points="354.179,-632.294 343.82,-630.071 350.531,-638.269 354.179,-632.294"/>
</g>
<!-- \\MslsLink&#45;&gt;\\MslsGetSet -->
<g id="edge25" class="edge"><title>\\MslsLink&#45;&gt;\\MslsGetSet</title>
<path fill="none" stroke="black" d="M279.164,-605.321C243.357,-598.648 187.927,-588.318 147.229,-580.734"/>
<polygon fill="none" stroke="black" points="147.692,-577.26 137.22,-578.868 146.409,-584.141 147.692,-577.26"/>
</g>
<!-- \\MslsOptionsQueryDay -->
<g id="node18" class="node"><title>\\MslsOptionsQueryDay</title>
<a xlink:href="includes.MslsOptionsQueryDay.html" xlink:title="MslsOptionsQueryDay" target="_parent">
<polygon fill="none" stroke="black" points="833,-576 689,-576 689,-540 833,-540 833,-576"/>
<text text-anchor="middle" x="761" y="-555.1" font-family="Courier,monospace" font-size="11.00">MslsOptionsQueryDay</text>
</a>
</g>
<!-- \\MslsOptionsQueryDay&#45;&gt;\\MslsOptionsQuery -->
<g id="edge27" class="edge"><title>\\MslsOptionsQueryDay&#45;&gt;\\MslsOptionsQuery</title>
<path fill="none" stroke="black" d="M688.319,-541.578C658.583,-534.86 624.252,-527.103 594.532,-520.388"/>
<polygon fill="none" stroke="black" points="595.168,-516.944 584.643,-518.154 593.625,-523.771 595.168,-516.944"/>
</g>
<!-- \\MslsOptionsPost -->
<g id="node19" class="node"><title>\\MslsOptionsPost</title>
<a xlink:href="includes.MslsOptionsPost.html" xlink:title="MslsOptionsPost" target="_parent">
<polygon fill="none" stroke="black" points="581,-468 463,-468 463,-432 581,-432 581,-468"/>
<text text-anchor="middle" x="522" y="-447.1" font-family="Courier,monospace" font-size="11.00">MslsOptionsPost</text>
</a>
</g>
<!-- \\MslsOptions -->
<g id="node21" class="node"><title>\\MslsOptions</title>
<a xlink:href="includes.MslsOptions.html" xlink:title="MslsOptions" target="_parent">
<polygon fill="none" stroke="black" points="360,-549 270,-549 270,-513 360,-513 360,-549"/>
<text text-anchor="middle" x="315" y="-528.1" font-family="Courier,monospace" font-size="11.00">MslsOptions</text>
</a>
</g>
<!-- \\MslsOptionsPost&#45;&gt;\\MslsOptions -->
<g id="edge29" class="edge"><title>\\MslsOptionsPost&#45;&gt;\\MslsOptions</title>
<path fill="none" stroke="black" d="M475.803,-468.077C444.569,-480.299 403.169,-496.499 370.199,-509.4"/>
<polygon fill="none" stroke="black" points="368.736,-506.214 360.699,-513.118 371.287,-512.733 368.736,-506.214"/>
</g>
<!-- \\MslsMetaBox -->
<g id="node20" class="node"><title>\\MslsMetaBox</title>
<a xlink:href="includes.MslsMetaBox.html" xlink:title="MslsMetaBox" target="_parent">
<polygon fill="none" stroke="black" points="806,-360 716,-360 716,-324 806,-324 806,-360"/>
<text text-anchor="middle" x="761" y="-339.1" font-family="Courier,monospace" font-size="11.00">MslsMetaBox</text>
</a>
</g>
<!-- \\MslsMetaBox&#45;&gt;\\MslsMain -->
<g id="edge31" class="edge"><title>\\MslsMetaBox&#45;&gt;\\MslsMain</title>
<path fill="none" stroke="black" d="M715.483,-331.716C675.235,-322.622 616.526,-309.357 574.346,-299.827"/>
<polygon fill="none" stroke="black" points="575.063,-296.401 564.538,-297.611 573.521,-303.229 575.063,-296.401"/>
</g>
<!-- \\MslsOptions&#45;&gt;\\IMslsRegistryInstance -->
<g id="edge55" class="edge"><title>\\MslsOptions&#45;&gt;\\IMslsRegistryInstance</title>
<path fill="none" stroke="black" stroke-dasharray="1,5" d="M269.416,-514.217C235.796,-501.838 189.78,-484.896 153.454,-471.522"/>
<polygon fill="none" stroke="black" points="154.557,-468.198 143.964,-468.028 152.139,-474.767 154.557,-468.198"/>
</g>
<!-- \\MslsOptions&#45;&gt;\\MslsGetSet -->
<g id="edge33" class="edge"><title>\\MslsOptions&#45;&gt;\\MslsGetSet</title>
<path fill="none" stroke="black" d="M269.416,-539.288C233.868,-545.751 184.462,-554.734 147.306,-561.49"/>
<polygon fill="none" stroke="black" points="146.385,-558.1 137.172,-563.332 147.637,-564.987 146.385,-558.1"/>
</g>
<!-- \\MslsOptionsQueryYear -->
<g id="node23" class="node"><title>\\MslsOptionsQueryYear</title>
<a xlink:href="includes.MslsOptionsQueryYear.html" xlink:title="MslsOptionsQueryYear" target="_parent">
<polygon fill="none" stroke="black" points="837,-522 685,-522 685,-486 837,-486 837,-522"/>
<text text-anchor="middle" x="761" y="-501.1" font-family="Courier,monospace" font-size="11.00">MslsOptionsQueryYear</text>
</a>
</g>
<!-- \\MslsOptionsQueryYear&#45;&gt;\\MslsOptionsQuery -->
<g id="edge35" class="edge"><title>\\MslsOptionsQueryYear&#45;&gt;\\MslsOptionsQuery</title>
<path fill="none" stroke="black" d="M684.722,-504C656.008,-504 623.446,-504 595.035,-504"/>
<polygon fill="none" stroke="black" points="594.77,-500.5 584.77,-504 594.77,-507.5 594.77,-500.5"/>
</g>
<!-- \\MslsBlogCollection -->
<g id="node24" class="node"><title>\\MslsBlogCollection</title>
<a xlink:href="includes.MslsBlogCollection.html" xlink:title="MslsBlogCollection" target="_parent">
<polygon fill="none" stroke="black" points="384,-495 246,-495 246,-459 384,-459 384,-495"/>
<text text-anchor="middle" x="315" y="-474.1" font-family="Courier,monospace" font-size="11.00">MslsBlogCollection</text>
</a>
</g>
<!-- \\MslsBlogCollection&#45;&gt;\\IMslsRegistryInstance -->
<g id="edge57" class="edge"><title>\\MslsBlogCollection&#45;&gt;\\IMslsRegistryInstance</title>
<path fill="none" stroke="black" stroke-dasharray="1,5" d="M245.994,-468.531C226.393,-466.126 204.766,-463.471 184.152,-460.941"/>
<polygon fill="none" stroke="black" points="184.479,-457.455 174.128,-459.711 183.627,-464.403 184.479,-457.455"/>
</g>
<!-- \\MslsOptionsTax&#45;&gt;\\MslsOptions -->
<g id="edge37" class="edge"><title>\\MslsOptionsTax&#45;&gt;\\MslsOptions</title>
<path fill="none" stroke="black" d="M466.255,-550.729C436.691,-546.873 400.469,-542.148 370.883,-538.289"/>
<polygon fill="none" stroke="black" points="371.086,-534.786 360.717,-536.963 370.181,-541.727 371.086,-534.786"/>
</g>
<!-- \\MslsPostTag -->
<g id="node26" class="node"><title>\\MslsPostTag</title>
<a xlink:href="includes.MslsPostTag.html" xlink:title="MslsPostTag" target="_parent">
<polygon fill="none" stroke="black" points="806,-306 716,-306 716,-270 806,-270 806,-306"/>
<text text-anchor="middle" x="761" y="-285.1" font-family="Courier,monospace" font-size="11.00">MslsPostTag</text>
</a>
</g>
<!-- \\MslsPostTag&#45;&gt;\\MslsMain -->
<g id="edge39" class="edge"><title>\\MslsPostTag&#45;&gt;\\MslsMain</title>
<path fill="none" stroke="black" d="M715.483,-288C675.32,-288 616.774,-288 574.613,-288"/>
<polygon fill="none" stroke="black" points="574.538,-284.5 564.538,-288 574.538,-291.5 574.538,-284.5"/>
</g>
<!-- \\MslsAdminIcon -->
<g id="node27" class="node"><title>\\MslsAdminIcon</title>
<a xlink:href="includes.MslsAdminIcon.html" xlink:title="MslsAdminIcon" target="_parent">
<polygon fill="none" stroke="black" points="813,-198 709,-198 709,-162 813,-162 813,-198"/>
<text text-anchor="middle" x="761" y="-177.1" font-family="Courier,monospace" font-size="11.00">MslsAdminIcon</text>
</a>
</g>
<!-- \\MslsLanguageArray -->
<g id="node28" class="node"><title>\\MslsLanguageArray</title>
<a xlink:href="includes.MslsLanguageArray.html" xlink:title="MslsLanguageArray" target="_parent">
<polygon fill="none" stroke="black" points="1095,-468 965,-468 965,-432 1095,-432 1095,-468"/>
<text text-anchor="middle" x="1030" y="-447.1" font-family="Courier,monospace" font-size="11.00">MslsLanguageArray</text>
</a>
</g>
<!-- \\MslsBlog -->
<g id="node29" class="node"><title>\\MslsBlog</title>
<a xlink:href="includes.MslsBlog.html" xlink:title="MslsBlog" target="_parent">
<polygon fill="none" stroke="black" points="1065,-414 995,-414 995,-378 1065,-378 1065,-414"/>
<text text-anchor="middle" x="1030" y="-393.1" font-family="Courier,monospace" font-size="11.00">MslsBlog</text>
</a>
</g>
<!-- \\MslsAdminIconTaxonomy -->
<g id="node30" class="node"><title>\\MslsAdminIconTaxonomy</title>
<a xlink:href="includes.MslsAdminIconTaxonomy.html" xlink:title="MslsAdminIconTaxonomy" target="_parent">
<polygon fill="none" stroke="black" points="1109,-360 951,-360 951,-324 1109,-324 1109,-360"/>
<text text-anchor="middle" x="1030" y="-339.1" font-family="Courier,monospace" font-size="11.00">MslsAdminIconTaxonomy</text>
</a>
</g>
<!-- \\MslsAdminIconTaxonomy&#45;&gt;\\MslsAdminIcon -->
<g id="edge41" class="edge"><title>\\MslsAdminIconTaxonomy&#45;&gt;\\MslsAdminIcon</title>
<path fill="none" stroke="black" d="M950.813,-324.797C944.871,-322.008 939.182,-318.766 934,-315 887.334,-281.084 908.884,-240.613 862,-207 850.545,-198.788 836.747,-193.073 823.081,-189.097"/>
<polygon fill="none" stroke="black" points="823.749,-185.654 813.188,-186.498 821.97,-192.424 823.749,-185.654"/>
</g>
<!-- \\MslsRegistry -->
<g id="node31" class="node"><title>\\MslsRegistry</title>
<a xlink:href="includes.MslsRegistry.html" xlink:title="MslsRegistry" target="_parent">
<polygon fill="none" stroke="black" points="1079,-306 981,-306 981,-270 1079,-270 1079,-306"/>
<text text-anchor="middle" x="1030" y="-285.1" font-family="Courier,monospace" font-size="11.00">MslsRegistry</text>
</a>
</g>
<!-- \\MslsPlugin -->
<g id="node32" class="node"><title>\\MslsPlugin</title>
<a xlink:href="includes.MslsPlugin.html" xlink:title="MslsPlugin" target="_parent">
<polygon fill="none" stroke="black" points="1072,-252 988,-252 988,-216 1072,-216 1072,-252"/>
<text text-anchor="middle" x="1030" y="-231.1" font-family="Courier,monospace" font-size="11.00">MslsPlugin</text>
</a>
</g>
<!-- \\MslsOutput -->
<g id="node33" class="node"><title>\\MslsOutput</title>
<a xlink:href="includes.MslsOutput.html" xlink:title="MslsOutput" target="_parent">
<polygon fill="none" stroke="black" points="803,-252 719,-252 719,-216 803,-216 803,-252"/>
<text text-anchor="middle" x="761" y="-231.1" font-family="Courier,monospace" font-size="11.00">MslsOutput</text>
</a>
</g>
<!-- \\MslsOutput&#45;&gt;\\MslsMain -->
<g id="edge43" class="edge"><title>\\MslsOutput&#45;&gt;\\MslsMain</title>
<path fill="none" stroke="black" d="M718.822,-243.53C678.541,-252.631 617.719,-266.373 574.358,-276.17"/>
<polygon fill="none" stroke="black" points="573.543,-272.766 564.561,-278.384 575.086,-279.594 573.543,-272.766"/>
</g>
<!-- \\MslsTaxonomy -->
<g id="node34" class="node"><title>\\MslsTaxonomy</title>
<a xlink:href="includes.MslsTaxonomy.html" xlink:title="MslsTaxonomy" target="_parent">
<polygon fill="none" stroke="black" points="364,-441 266,-441 266,-405 364,-405 364,-441"/>
<text text-anchor="middle" x="315" y="-420.1" font-family="Courier,monospace" font-size="11.00">MslsTaxonomy</text>
</a>
</g>
<!-- \\MslsTaxonomy&#45;&gt;\\IMslsRegistryInstance -->
<g id="edge59" class="edge"><title>\\MslsTaxonomy&#45;&gt;\\IMslsRegistryInstance</title>
<path fill="none" stroke="black" stroke-dasharray="1,5" d="M265.902,-429.026C241.878,-431.974 212.195,-435.617 184.344,-439.035"/>
<polygon fill="none" stroke="black" points="183.68,-435.59 174.18,-440.282 184.532,-442.538 183.68,-435.59"/>
</g>
<!-- \\MslsTaxonomy&#45;&gt;\\MslsContentTypes -->
<g id="edge45" class="edge"><title>\\MslsTaxonomy&#45;&gt;\\MslsContentTypes</title>
<path fill="none" stroke="black" d="M265.902,-416.974C237.105,-413.44 200.178,-408.908 168.021,-404.962"/>
<polygon fill="none" stroke="black" points="168.117,-401.447 157.765,-403.703 167.264,-408.395 168.117,-401.447"/>
</g>
<!-- \\MslsPostType -->
<g id="node35" class="node"><title>\\MslsPostType</title>
<a xlink:href="includes.MslsPostType.html" xlink:title="MslsPostType" target="_parent">
<polygon fill="none" stroke="black" points="364,-387 266,-387 266,-351 364,-351 364,-387"/>
<text text-anchor="middle" x="315" y="-366.1" font-family="Courier,monospace" font-size="11.00">MslsPostType</text>
</a>
</g>
<!-- \\MslsPostType&#45;&gt;\\IMslsRegistryInstance -->
<g id="edge61" class="edge"><title>\\MslsPostType&#45;&gt;\\IMslsRegistryInstance</title>
<path fill="none" stroke="black" stroke-dasharray="1,5" d="M269.119,-387.056C241.623,-397.756 205.916,-411.439 174,-423 168.89,-424.851 163.581,-426.739 158.243,-428.614"/>
<polygon fill="none" stroke="black" points="156.927,-425.366 148.636,-431.963 159.231,-431.976 156.927,-425.366"/>
</g>
<!-- \\MslsPostType&#45;&gt;\\MslsContentTypes -->
<g id="edge47" class="edge"><title>\\MslsPostType&#45;&gt;\\MslsContentTypes</title>
<path fill="none" stroke="black" d="M265.902,-375.026C237.105,-378.56 200.178,-383.092 168.021,-387.038"/>
<polygon fill="none" stroke="black" points="167.264,-383.605 157.765,-388.297 168.117,-390.553 167.264,-383.605"/>
</g>
<!-- \\MslsWidget -->
<g id="node36" class="node"><title>\\MslsWidget</title>
<a xlink:href="includes.MslsWidget.html" xlink:title="MslsWidget" target="_parent">
<polygon fill="none" stroke="black" points="1072,-198 988,-198 988,-162 1072,-162 1072,-198"/>
<text text-anchor="middle" x="1030" y="-177.1" font-family="Courier,monospace" font-size="11.00">MslsWidget</text>
</a>
</g>
<!-- \\WP_Widget -->
<g id="node63" class="node"><title>\\WP_Widget</title>
<ellipse fill="none" stroke="black" cx="761" cy="-72" rx="72.1249" ry="18.3848"/>
<text text-anchor="middle" x="761" y="-68.4" font-family="Times Roman,serif" font-size="14.00" fill="gray">\WP_Widget</text>
</g>
<!-- \\MslsWidget&#45;&gt;\\WP_Widget -->
<g id="edge49" class="edge"><title>\\MslsWidget&#45;&gt;\\WP_Widget</title>
<path fill="none" stroke="black" d="M987.541,-171.884C970.343,-167.633 950.655,-161.5 934,-153 897.647,-134.447 898.725,-113.807 862,-96 852.377,-91.3343 841.789,-87.5421 831.201,-84.4691"/>
<polygon fill="none" stroke="black" points="832.071,-81.0788 821.504,-81.8448 830.242,-87.8357 832.071,-81.0788"/>
</g>
<!-- \\MslsOptionsQuery&#45;&gt;\\MslsOptions -->
<g id="edge51" class="edge"><title>\\MslsOptionsQuery&#45;&gt;\\MslsOptions</title>
<path fill="none" stroke="black" d="M459.331,-512.174C431.159,-515.849 398.179,-520.151 370.863,-523.714"/>
<polygon fill="none" stroke="black" points="370.156,-520.276 360.692,-525.04 371.061,-527.217 370.156,-520.276"/>
</g>
<!-- \\WP_Test_MslsGetSet -->
<g id="node38" class="node"><title>\\WP_Test_MslsGetSet</title>
<a xlink:href="tests.test_mslsgetset.html" xlink:title="WP_Test_MslsGetSet" target="_parent">
<polygon fill="none" stroke="black" points="1099,-144 961,-144 961,-108 1099,-108 1099,-144"/>
<text text-anchor="middle" x="1030" y="-123.1" font-family="Courier,monospace" font-size="11.00">WP_Test_MslsGetSet</text>
</a>
</g>
<!-- \\WP_UnitTestCase -->
<g id="node66" class="node"><title>\\WP_UnitTestCase</title>
<ellipse fill="none" stroke="black" cx="761" cy="-18" rx="101.116" ry="18.3848"/>
<text text-anchor="middle" x="761" y="-14.4" font-family="Times Roman,serif" font-size="14.00" fill="gray">\WP_UnitTestCase</text>
</g>
<!-- \\WP_Test_MslsGetSet&#45;&gt;\\WP_UnitTestCase -->
<g id="edge53" class="edge"><title>\\WP_Test_MslsGetSet&#45;&gt;\\WP_UnitTestCase</title>
<path fill="none" stroke="black" d="M997.335,-107.973C964.055,-90.1552 910.573,-63.0194 862,-45 852.393,-41.4359 842.111,-38.1306 831.919,-35.1434"/>
<polygon fill="none" stroke="black" points="832.776,-31.7484 822.2,-32.3787 830.86,-38.4813 832.776,-31.7484"/>
</g>
</g>
</svg>
