<?xml version="1.0" encoding="UTF-8" standalone="no"?>
<!DOCTYPE svg PUBLIC "-//W3C//DTD SVG 1.1//EN"
 "http://www.w3.org/Graphics/SVG/1.1/DTD/svg11.dtd">
<!-- Generated by graphviz version 2.26.3 (20100126.1600)
 -->
<!-- Title: G Pages: 1 -->
<svg width="1128pt" height="730pt"
 viewBox="0.00 0.00 1128.00 730.00" xmlns="http://www.w3.org/2000/svg" xmlns:xlink="http://www.w3.org/1999/xlink">
<g id="graph1" class="graph" transform="scale(1 1) rotate(0) translate(4 726)">
<title>G</title>
<polygon fill="white" stroke="white" points="-4,5 -4,-726 1125,-726 1125,5 -4,5"/>
<g id="graph2" class="cluster"><title>cluster_global</title>
<polyline fill="none" stroke="gray" points="20,-46 1100,-46 "/>
<path fill="none" stroke="gray" d="M1100,-46C1106,-46 1112,-52 1112,-58"/>
<polyline fill="none" stroke="gray" points="1112,-58 1112,-702 "/>
<path fill="none" stroke="gray" d="M1112,-702C1112,-708 1106,-714 1100,-714"/>
<polyline fill="none" stroke="gray" points="1100,-714 20,-714 "/>
<path fill="none" stroke="gray" d="M20,-714C14,-714 8,-708 8,-702"/>
<polyline fill="none" stroke="gray" points="8,-702 8,-58 "/>
<path fill="none" stroke="gray" d="M8,-58C8,-52 14,-46 20,-46"/>
<text text-anchor="middle" x="560" y="-700.1" font-family="Times Roman,serif" font-size="11.00" fill="gray">global</text>
</g>
<!-- \\IMslsRegistryInstance -->
<g id="node2" class="node"><title>\\IMslsRegistryInstance</title>
<a xlink:href="MultisiteLanguageSwitcher.html" xlink:title="IMslsRegistryInstance" target="_parent">
<polygon fill="none" stroke="black" points="174,-414 16,-414 16,-378 174,-378 174,-414"/>
<text text-anchor="middle" x="95" y="-393.1" font-family="Courier,monospace" font-size="11.00">IMslsRegistryInstance</text>
</a>
</g>
<!-- \\MslsAutoloader -->
<g id="node3" class="node"><title>\\MslsAutoloader</title>
<a xlink:href="MultisiteLanguageSwitcher.html" xlink:title="MslsAutoloader" target="_parent">
<polygon fill="none" stroke="black" points="1063,-684 953,-684 953,-648 1063,-648 1063,-684"/>
<text text-anchor="middle" x="1008" y="-663.1" font-family="Courier,monospace" font-size="11.00">MslsAutoloader</text>
</a>
</g>
<!-- \\MslsLinkImageOnly -->
<g id="node4" class="node"><title>\\MslsLinkImageOnly</title>
<a xlink:href="includes.MslsLinkImageOnly.html" xlink:title="MslsLinkImageOnly" target="_parent">
<polygon fill="none" stroke="black" points="587,-630 457,-630 457,-594 587,-594 587,-630"/>
<text text-anchor="middle" x="522" y="-609.1" font-family="Courier,monospace" font-size="11.00">MslsLinkImageOnly</text>
</a>
</g>
<!-- \\MslsLink -->
<g id="node17" class="node"><title>\\MslsLink</title>
<a xlink:href="includes.MslsLink.html" xlink:title="MslsLink" target="_parent">
<polygon fill="none" stroke="black" points="350,-576 280,-576 280,-540 350,-540 350,-576"/>
<text text-anchor="middle" x="315" y="-555.1" font-family="Courier,monospace" font-size="11.00">MslsLink</text>
</a>
</g>
<!-- \\MslsLinkImageOnly&#45;&gt;\\MslsLink -->
<g id="edge3" class="edge"><title>\\MslsLinkImageOnly&#45;&gt;\\MslsLink</title>
<path fill="none" stroke="black" d="M456.219,-594.84C425.116,-586.726 388.747,-577.238 360.708,-569.924"/>
<polygon fill="none" stroke="black" points="361.339,-566.471 350.779,-567.334 359.572,-573.245 361.339,-566.471"/>
</g>
<!-- \\MslsOptionsQueryPostType -->
<g id="node5" class="node"><title>\\MslsOptionsQueryPostType</title>
<a xlink:href="includes.MslsOptionsQueryPostType.html" xlink:title="MslsOptionsQueryPostType" target="_parent">
<polygon fill="none" stroke="black" points="839,-414 661,-414 661,-378 839,-378 839,-414"/>
<text text-anchor="middle" x="750" y="-393.1" font-family="Courier,monospace" font-size="11.00">MslsOptionsQueryPostType</text>
</a>
</g>
<!-- \\MslsOptionsQuery -->
<g id="node37" class="node"><title>\\MslsOptionsQuery</title>
<a xlink:href="includes.MslsOptionsQuery.html" xlink:title="MslsOptionsQuery" target="_parent">
<polygon fill="none" stroke="black" points="584,-468 460,-468 460,-432 584,-432 584,-468"/>
<text text-anchor="middle" x="522" y="-447.1" font-family="Courier,monospace" font-size="11.00">MslsOptionsQuery</text>
</a>
</g>
<!-- \\MslsOptionsQueryPostType&#45;&gt;\\MslsOptionsQuery -->
<g id="edge5" class="edge"><title>\\MslsOptionsQueryPostType&#45;&gt;\\MslsOptionsQuery</title>
<path fill="none" stroke="black" d="M673.762,-414.056C648.162,-420.119 619.699,-426.861 594.402,-432.852"/>
<polygon fill="none" stroke="black" points="593.433,-429.485 584.509,-435.195 595.047,-436.296 593.433,-429.485"/>
</g>
<!-- \\MslsAdmin -->
<g id="node6" class="node"><title>\\MslsAdmin</title>
<a xlink:href="includes.MslsAdmin.html" xlink:title="MslsAdmin" target="_parent">
<polygon fill="none" stroke="black" points="788,-90 712,-90 712,-54 788,-54 788,-90"/>
<text text-anchor="middle" x="750" y="-69.1" font-family="Courier,monospace" font-size="11.00">MslsAdmin</text>
</a>
</g>
<!-- \\MslsMain -->
<g id="node22" class="node"><title>\\MslsMain</title>
<a xlink:href="includes.MslsMain.html" xlink:title="«abstract»&lt;br/&gt;MslsMain" target="_parent">
<polygon fill="none" stroke="black" points="564,-252 480,-252 480,-216 564,-216 564,-252"/>
<text text-anchor="start" x="488" y="-239.433" font-family="Courier,monospace" font-size="11.00">«abstract»</text>
<text text-anchor="start" x="494.5" y="-226.233" font-family="Courier,monospace" font-size="11.00">MslsMain</text>
</a>
</g>
<!-- \\MslsAdmin&#45;&gt;\\MslsMain -->
<g id="edge7" class="edge"><title>\\MslsAdmin&#45;&gt;\\MslsMain</title>
<path fill="none" stroke="black" d="M711.098,-79.3194C694.588,-83.5024 675.596,-89.8003 660,-99 611.184,-127.795 566.645,-177.453 542.033,-207.848"/>
<polygon fill="none" stroke="black" points="539.13,-205.876 535.633,-215.877 544.603,-210.239 539.13,-205.876"/>
</g>
<!-- \\MslsOptionsTaxTermCategory -->
<g id="node7" class="node"><title>\\MslsOptionsTaxTermCategory</title>
<a xlink:href="includes.MslsOptionsTaxTermCategory.html" xlink:title="MslsOptionsTaxTermCategory" target="_parent">
<polygon fill="none" stroke="black" points="1104,-630 912,-630 912,-594 1104,-594 1104,-630"/>
<text text-anchor="middle" x="1008" y="-609.1" font-family="Courier,monospace" font-size="11.00">MslsOptionsTaxTermCategory</text>
</a>
</g>
<!-- \\MslsOptionsTaxTerm -->
<g id="node9" class="node"><title>\\MslsOptionsTaxTerm</title>
<a xlink:href="includes.MslsOptionsTaxTerm.html" xlink:title="MslsOptionsTaxTerm" target="_parent">
<polygon fill="none" stroke="black" points="819,-684 681,-684 681,-648 819,-648 819,-684"/>
<text text-anchor="middle" x="750" y="-663.1" font-family="Courier,monospace" font-size="11.00">MslsOptionsTaxTerm</text>
</a>
</g>
<!-- \\MslsOptionsTaxTermCategory&#45;&gt;\\MslsOptionsTaxTerm -->
<g id="edge9" class="edge"><title>\\MslsOptionsTaxTermCategory&#45;&gt;\\MslsOptionsTaxTerm</title>
<path fill="none" stroke="black" d="M921.731,-630.056C891.724,-636.337 858.239,-643.345 828.862,-649.494"/>
<polygon fill="none" stroke="black" points="828.139,-646.069 819.068,-651.544 829.573,-652.921 828.139,-646.069"/>
</g>
<!-- \\MslsLinkTextImage -->
<g id="node8" class="node"><title>\\MslsLinkTextImage</title>
<a xlink:href="includes.MslsLinkTextImage.html" xlink:title="MslsLinkTextImage" target="_parent">
<polygon fill="none" stroke="black" points="587,-576 457,-576 457,-540 587,-540 587,-576"/>
<text text-anchor="middle" x="522" y="-555.1" font-family="Courier,monospace" font-size="11.00">MslsLinkTextImage</text>
</a>
</g>
<!-- \\MslsLinkTextImage&#45;&gt;\\MslsLink -->
<g id="edge11" class="edge"><title>\\MslsLinkTextImage&#45;&gt;\\MslsLink</title>
<path fill="none" stroke="black" d="M456.219,-558C425.252,-558 389.066,-558 361.077,-558"/>
<polygon fill="none" stroke="black" points="360.779,-554.5 350.779,-558 360.779,-561.5 360.779,-554.5"/>
</g>
<!-- \\MslsOptionsTax -->
<g id="node25" class="node"><title>\\MslsOptionsTax</title>
<a xlink:href="includes.MslsOptionsTax.html" xlink:title="MslsOptionsTax" target="_parent">
<polygon fill="none" stroke="black" points="577,-522 467,-522 467,-486 577,-486 577,-522"/>
<text text-anchor="middle" x="522" y="-501.1" font-family="Courier,monospace" font-size="11.00">MslsOptionsTax</text>
</a>
</g>
<!-- \\MslsOptionsTaxTerm&#45;&gt;\\MslsOptionsTax -->
<g id="edge13" class="edge"><title>\\MslsOptionsTaxTerm&#45;&gt;\\MslsOptionsTax</title>
<path fill="none" stroke="black" d="M680.771,-650.717C673.392,-647.519 666.294,-643.658 660,-639 613.629,-604.682 632.655,-567.523 588,-531 586.616,-529.868 585.179,-528.779 583.698,-527.729"/>
<polygon fill="none" stroke="black" points="585.147,-524.507 574.816,-522.157 581.427,-530.436 585.147,-524.507"/>
</g>
<!-- \\MslsOptionsQueryAuthor -->
<g id="node10" class="node"><title>\\MslsOptionsQueryAuthor</title>
<a xlink:href="includes.MslsOptionsQueryAuthor.html" xlink:title="MslsOptionsQueryAuthor" target="_parent">
<polygon fill="none" stroke="black" points="832,-630 668,-630 668,-594 832,-594 832,-630"/>
<text text-anchor="middle" x="750" y="-609.1" font-family="Courier,monospace" font-size="11.00">MslsOptionsQueryAuthor</text>
</a>
</g>
<!-- \\MslsOptionsQueryAuthor&#45;&gt;\\MslsOptionsQuery -->
<g id="edge15" class="edge"><title>\\MslsOptionsQueryAuthor&#45;&gt;\\MslsOptionsQuery</title>
<path fill="none" stroke="black" d="M674.848,-593.97C669.606,-591.369 664.589,-588.397 660,-585 613.629,-550.682 632.655,-513.523 588,-477 586.616,-475.868 585.179,-474.779 583.698,-473.729"/>
<polygon fill="none" stroke="black" points="585.147,-470.507 574.816,-468.157 581.427,-476.436 585.147,-470.507"/>
</g>
<!-- \\MslsOptionsQueryMonth -->
<g id="node11" class="node"><title>\\MslsOptionsQueryMonth</title>
<a xlink:href="includes.MslsOptionsQueryMonth.html" xlink:title="MslsOptionsQueryMonth" target="_parent">
<polygon fill="none" stroke="black" points="829,-576 671,-576 671,-540 829,-540 829,-576"/>
<text text-anchor="middle" x="750" y="-555.1" font-family="Courier,monospace" font-size="11.00">MslsOptionsQueryMonth</text>
</a>
</g>
<!-- \\MslsOptionsQueryMonth&#45;&gt;\\MslsOptionsQuery -->
<g id="edge17" class="edge"><title>\\MslsOptionsQueryMonth&#45;&gt;\\MslsOptionsQuery</title>
<path fill="none" stroke="black" d="M680.721,-539.951C673.583,-537.287 666.553,-534.308 660,-531 624.292,-512.975 622.794,-496.733 588,-477 585.2,-475.412 582.288,-473.868 579.316,-472.376"/>
<polygon fill="none" stroke="black" points="580.802,-469.207 570.269,-468.06 577.788,-475.525 580.802,-469.207"/>
</g>
<!-- \\MslsContentTypes -->
<g id="node12" class="node"><title>\\MslsContentTypes</title>
<a xlink:href="includes.MslsContentTypes.html" xlink:title="MslsContentTypes" target="_parent">
<polygon fill="none" stroke="black" points="157,-360 33,-360 33,-324 157,-324 157,-360"/>
<text text-anchor="middle" x="95" y="-339.1" font-family="Courier,monospace" font-size="11.00">MslsContentTypes</text>
</a>
</g>
<!-- \\MslsCustomColumn -->
<g id="node13" class="node"><title>\\MslsCustomColumn</title>
<a xlink:href="includes.MslsCustomColumn.html" xlink:title="MslsCustomColumn" target="_parent">
<polygon fill="none" stroke="black" points="812,-360 688,-360 688,-324 812,-324 812,-360"/>
<text text-anchor="middle" x="750" y="-339.1" font-family="Courier,monospace" font-size="11.00">MslsCustomColumn</text>
</a>
</g>
<!-- \\MslsCustomColumn&#45;&gt;\\MslsMain -->
<g id="edge19" class="edge"><title>\\MslsCustomColumn&#45;&gt;\\MslsMain</title>
<path fill="none" stroke="black" d="M687.331,-325.315C678.036,-322.235 668.673,-318.781 660,-315 623.234,-298.972 584.046,-275.259 556.861,-257.628"/>
<polygon fill="none" stroke="black" points="558.758,-254.687 548.475,-252.135 554.922,-260.542 558.758,-254.687"/>
</g>
<!-- \\MslsCustomColumnTaxonomy -->
<g id="node14" class="node"><title>\\MslsCustomColumnTaxonomy</title>
<a xlink:href="includes.MslsCustomColumnTaxonomy.html" xlink:title="MslsCustomColumnTaxonomy" target="_parent">
<polygon fill="none" stroke="black" points="1097,-414 919,-414 919,-378 1097,-378 1097,-414"/>
<text text-anchor="middle" x="1008" y="-393.1" font-family="Courier,monospace" font-size="11.00">MslsCustomColumnTaxonomy</text>
</a>
</g>
<!-- \\MslsCustomColumnTaxonomy&#45;&gt;\\MslsCustomColumn -->
<g id="edge21" class="edge"><title>\\MslsCustomColumnTaxonomy&#45;&gt;\\MslsCustomColumn</title>
<path fill="none" stroke="black" d="M921.731,-377.944C889.478,-371.193 853.208,-363.602 822.339,-357.141"/>
<polygon fill="none" stroke="black" points="823.024,-353.708 812.519,-355.085 821.59,-360.56 823.024,-353.708"/>
</g>
<!-- \\MslsGetSet -->
<g id="node15" class="node"><title>\\MslsGetSet</title>
<a xlink:href="includes.MslsGetSet.html" xlink:title="MslsGetSet" target="_parent">
<polygon fill="none" stroke="black" points="137,-535 53,-535 53,-499 137,-499 137,-535"/>
<text text-anchor="middle" x="95" y="-514.1" font-family="Courier,monospace" font-size="11.00">MslsGetSet</text>
</a>
</g>
<!-- \\MslsLinkTextOnly -->
<g id="node16" class="node"><title>\\MslsLinkTextOnly</title>
<a xlink:href="includes.MslsLinkTextOnly.html" xlink:title="MslsLinkTextOnly" target="_parent">
<polygon fill="none" stroke="black" points="584,-684 460,-684 460,-648 584,-648 584,-684"/>
<text text-anchor="middle" x="522" y="-663.1" font-family="Courier,monospace" font-size="11.00">MslsLinkTextOnly</text>
</a>
</g>
<!-- \\MslsLinkTextOnly&#45;&gt;\\MslsLink -->
<g id="edge23" class="edge"><title>\\MslsLinkTextOnly&#45;&gt;\\MslsLink</title>
<path fill="none" stroke="black" d="M475.496,-647.888C468.889,-645.051 462.228,-642.046 456,-639 419.958,-621.373 380.478,-598.353 352.486,-581.361"/>
<polygon fill="none" stroke="black" points="354.179,-578.294 343.82,-576.071 350.531,-584.269 354.179,-578.294"/>
</g>
<!-- \\MslsLink&#45;&gt;\\MslsGetSet -->
<g id="edge25" class="edge"><title>\\MslsLink&#45;&gt;\\MslsGetSet</title>
<path fill="none" stroke="black" d="M279.164,-551.321C243.357,-544.648 187.927,-534.318 147.229,-526.734"/>
<polygon fill="none" stroke="black" points="147.692,-523.26 137.22,-524.868 146.409,-530.141 147.692,-523.26"/>
</g>
<!-- \\MslsOptionsQueryDay -->
<g id="node18" class="node"><title>\\MslsOptionsQueryDay</title>
<a xlink:href="includes.MslsOptionsQueryDay.html" xlink:title="MslsOptionsQueryDay" target="_parent">
<polygon fill="none" stroke="black" points="822,-522 678,-522 678,-486 822,-486 822,-522"/>
<text text-anchor="middle" x="750" y="-501.1" font-family="Courier,monospace" font-size="11.00">MslsOptionsQueryDay</text>
</a>
</g>
<!-- \\MslsOptionsQueryDay&#45;&gt;\\MslsOptionsQuery -->
<g id="edge27" class="edge"><title>\\MslsOptionsQueryDay&#45;&gt;\\MslsOptionsQuery</title>
<path fill="none" stroke="black" d="M677.233,-486.766C650.885,-480.525 621.141,-473.481 594.791,-467.24"/>
<polygon fill="none" stroke="black" points="595.41,-463.79 584.873,-464.891 593.797,-470.601 595.41,-463.79"/>
</g>
<!-- \\MslsOptionsPost -->
<g id="node19" class="node"><title>\\MslsOptionsPost</title>
<a xlink:href="includes.MslsOptionsPost.html" xlink:title="MslsOptionsPost" target="_parent">
<polygon fill="none" stroke="black" points="581,-414 463,-414 463,-378 581,-378 581,-414"/>
<text text-anchor="middle" x="522" y="-393.1" font-family="Courier,monospace" font-size="11.00">MslsOptionsPost</text>
</a>
</g>
<!-- \\MslsOptions -->
<g id="node21" class="node"><title>\\MslsOptions</title>
<a xlink:href="includes.MslsOptions.html" xlink:title="MslsOptions" target="_parent">
<polygon fill="none" stroke="black" points="360,-495 270,-495 270,-459 360,-459 360,-495"/>
<text text-anchor="middle" x="315" y="-474.1" font-family="Courier,monospace" font-size="11.00">MslsOptions</text>
</a>
</g>
<!-- \\MslsOptionsPost&#45;&gt;\\MslsOptions -->
<g id="edge29" class="edge"><title>\\MslsOptionsPost&#45;&gt;\\MslsOptions</title>
<path fill="none" stroke="black" d="M475.803,-414.077C444.569,-426.299 403.169,-442.499 370.199,-455.4"/>
<polygon fill="none" stroke="black" points="368.736,-452.214 360.699,-459.118 371.287,-458.733 368.736,-452.214"/>
</g>
<!-- \\MslsMetaBox -->
<g id="node20" class="node"><title>\\MslsMetaBox</title>
<a xlink:href="includes.MslsMetaBox.html" xlink:title="MslsMetaBox" target="_parent">
<polygon fill="none" stroke="black" points="795,-306 705,-306 705,-270 795,-270 795,-306"/>
<text text-anchor="middle" x="750" y="-285.1" font-family="Courier,monospace" font-size="11.00">MslsMetaBox</text>
</a>
</g>
<!-- \\MslsMetaBox&#45;&gt;\\MslsMain -->
<g id="edge31" class="edge"><title>\\MslsMetaBox&#45;&gt;\\MslsMain</title>
<path fill="none" stroke="black" d="M704.409,-277.202C666.991,-268.34 613.969,-255.782 574.728,-246.488"/>
<polygon fill="none" stroke="black" points="575.35,-243.039 564.813,-244.14 573.737,-249.85 575.35,-243.039"/>
</g>
<!-- \\MslsOptions&#45;&gt;\\IMslsRegistryInstance -->
<g id="edge53" class="edge"><title>\\MslsOptions&#45;&gt;\\IMslsRegistryInstance</title>
<path fill="none" stroke="black" stroke-dasharray="1,5" d="M269.416,-460.217C235.796,-447.838 189.78,-430.896 153.454,-417.522"/>
<polygon fill="none" stroke="black" points="154.557,-414.198 143.964,-414.028 152.139,-420.767 154.557,-414.198"/>
</g>
<!-- \\MslsOptions&#45;&gt;\\MslsGetSet -->
<g id="edge33" class="edge"><title>\\MslsOptions&#45;&gt;\\MslsGetSet</title>
<path fill="none" stroke="black" d="M269.416,-485.288C233.868,-491.751 184.462,-500.734 147.306,-507.49"/>
<polygon fill="none" stroke="black" points="146.385,-504.1 137.172,-509.332 147.637,-510.987 146.385,-504.1"/>
</g>
<!-- \\MslsOptionsQueryYear -->
<g id="node23" class="node"><title>\\MslsOptionsQueryYear</title>
<a xlink:href="includes.MslsOptionsQueryYear.html" xlink:title="MslsOptionsQueryYear" target="_parent">
<polygon fill="none" stroke="black" points="826,-468 674,-468 674,-432 826,-432 826,-468"/>
<text text-anchor="middle" x="750" y="-447.1" font-family="Courier,monospace" font-size="11.00">MslsOptionsQueryYear</text>
</a>
</g>
<!-- \\MslsOptionsQueryYear&#45;&gt;\\MslsOptionsQuery -->
<g id="edge35" class="edge"><title>\\MslsOptionsQueryYear&#45;&gt;\\MslsOptionsQuery</title>
<path fill="none" stroke="black" d="M673.762,-450C648.276,-450 619.95,-450 594.738,-450"/>
<polygon fill="none" stroke="black" points="594.509,-446.5 584.509,-450 594.509,-453.5 594.509,-446.5"/>
</g>
<!-- \\MslsBlogCollection -->
<g id="node24" class="node"><title>\\MslsBlogCollection</title>
<a xlink:href="includes.MslsBlogCollection.html" xlink:title="MslsBlogCollection" target="_parent">
<polygon fill="none" stroke="black" points="384,-441 246,-441 246,-405 384,-405 384,-441"/>
<text text-anchor="middle" x="315" y="-420.1" font-family="Courier,monospace" font-size="11.00">MslsBlogCollection</text>
</a>
</g>
<!-- \\MslsBlogCollection&#45;&gt;\\IMslsRegistryInstance -->
<g id="edge55" class="edge"><title>\\MslsBlogCollection&#45;&gt;\\IMslsRegistryInstance</title>
<path fill="none" stroke="black" stroke-dasharray="1,5" d="M245.994,-414.531C226.393,-412.126 204.766,-409.471 184.152,-406.941"/>
<polygon fill="none" stroke="black" points="184.479,-403.455 174.128,-405.711 183.627,-410.403 184.479,-403.455"/>
</g>
<!-- \\MslsOptionsTax&#45;&gt;\\MslsOptions -->
<g id="edge37" class="edge"><title>\\MslsOptionsTax&#45;&gt;\\MslsOptions</title>
<path fill="none" stroke="black" d="M466.255,-496.729C436.691,-492.873 400.469,-488.148 370.883,-484.289"/>
<polygon fill="none" stroke="black" points="371.086,-480.786 360.717,-482.963 370.181,-487.727 371.086,-480.786"/>
</g>
<!-- \\MslsPostTag -->
<g id="node26" class="node"><title>\\MslsPostTag</title>
<a xlink:href="includes.MslsPostTag.html" xlink:title="MslsPostTag" target="_parent">
<polygon fill="none" stroke="black" points="795,-252 705,-252 705,-216 795,-216 795,-252"/>
<text text-anchor="middle" x="750" y="-231.1" font-family="Courier,monospace" font-size="11.00">MslsPostTag</text>
</a>
</g>
<!-- \\MslsPostTag&#45;&gt;\\MslsMain -->
<g id="edge39" class="edge"><title>\\MslsPostTag&#45;&gt;\\MslsMain</title>
<path fill="none" stroke="black" d="M704.409,-234C667.07,-234 614.194,-234 574.978,-234"/>
<polygon fill="none" stroke="black" points="574.813,-230.5 564.813,-234 574.813,-237.5 574.813,-230.5"/>
</g>
<!-- \\MslsAdminIcon -->
<g id="node27" class="node"><title>\\MslsAdminIcon</title>
<a xlink:href="includes.MslsAdminIcon.html" xlink:title="MslsAdminIcon" target="_parent">
<polygon fill="none" stroke="black" points="802,-144 698,-144 698,-108 802,-108 802,-144"/>
<text text-anchor="middle" x="750" y="-123.1" font-family="Courier,monospace" font-size="11.00">MslsAdminIcon</text>
</a>
</g>
<!-- \\MslsLanguageArray -->
<g id="node28" class="node"><title>\\MslsLanguageArray</title>
<a xlink:href="includes.MslsLanguageArray.html" xlink:title="MslsLanguageArray" target="_parent">
<polygon fill="none" stroke="black" points="1073,-360 943,-360 943,-324 1073,-324 1073,-360"/>
<text text-anchor="middle" x="1008" y="-339.1" font-family="Courier,monospace" font-size="11.00">MslsLanguageArray</text>
</a>
</g>
<!-- \\MslsBlog -->
<g id="node29" class="node"><title>\\MslsBlog</title>
<a xlink:href="includes.MslsBlog.html" xlink:title="MslsBlog" target="_parent">
<polygon fill="none" stroke="black" points="1043,-306 973,-306 973,-270 1043,-270 1043,-306"/>
<text text-anchor="middle" x="1008" y="-285.1" font-family="Courier,monospace" font-size="11.00">MslsBlog</text>
</a>
</g>
<!-- \\MslsAdminIconTaxonomy -->
<g id="node30" class="node"><title>\\MslsAdminIconTaxonomy</title>
<a xlink:href="includes.MslsAdminIconTaxonomy.html" xlink:title="MslsAdminIconTaxonomy" target="_parent">
<polygon fill="none" stroke="black" points="1087,-252 929,-252 929,-216 1087,-216 1087,-252"/>
<text text-anchor="middle" x="1008" y="-231.1" font-family="Courier,monospace" font-size="11.00">MslsAdminIconTaxonomy</text>
</a>
</g>
<!-- \\MslsAdminIconTaxonomy&#45;&gt;\\MslsAdminIcon -->
<g id="edge41" class="edge"><title>\\MslsAdminIconTaxonomy&#45;&gt;\\MslsAdminIcon</title>
<path fill="none" stroke="black" d="M933.331,-215.969C925.982,-213.317 918.752,-210.336 912,-207 876.137,-189.284 875.708,-171.025 840,-153 831.153,-148.534 821.437,-144.667 811.762,-141.367"/>
<polygon fill="none" stroke="black" points="812.727,-138 802.135,-138.254 810.573,-144.661 812.727,-138"/>
</g>
<!-- \\MslsRegistry -->
<g id="node31" class="node"><title>\\MslsRegistry</title>
<a xlink:href="includes.MslsRegistry.html" xlink:title="MslsRegistry" target="_parent">
<polygon fill="none" stroke="black" points="1057,-198 959,-198 959,-162 1057,-162 1057,-198"/>
<text text-anchor="middle" x="1008" y="-177.1" font-family="Courier,monospace" font-size="11.00">MslsRegistry</text>
</a>
</g>
<!-- \\MslsPlugin -->
<g id="node32" class="node"><title>\\MslsPlugin</title>
<a xlink:href="includes.MslsPlugin.html" xlink:title="MslsPlugin" target="_parent">
<polygon fill="none" stroke="black" points="1050,-144 966,-144 966,-108 1050,-108 1050,-144"/>
<text text-anchor="middle" x="1008" y="-123.1" font-family="Courier,monospace" font-size="11.00">MslsPlugin</text>
</a>
</g>
<!-- \\MslsOutput -->
<g id="node33" class="node"><title>\\MslsOutput</title>
<a xlink:href="includes.MslsOutput.html" xlink:title="MslsOutput" target="_parent">
<polygon fill="none" stroke="black" points="792,-198 708,-198 708,-162 792,-162 792,-198"/>
<text text-anchor="middle" x="750" y="-177.1" font-family="Courier,monospace" font-size="11.00">MslsOutput</text>
</a>
</g>
<!-- \\MslsOutput&#45;&gt;\\MslsMain -->
<g id="edge43" class="edge"><title>\\MslsOutput&#45;&gt;\\MslsMain</title>
<path fill="none" stroke="black" d="M707.916,-189.967C670.314,-198.873 615.069,-211.957 574.571,-221.549"/>
<polygon fill="none" stroke="black" points="573.536,-218.197 564.612,-223.908 575.149,-225.009 573.536,-218.197"/>
</g>
<!-- \\MslsTaxonomy -->
<g id="node34" class="node"><title>\\MslsTaxonomy</title>
<a xlink:href="includes.MslsTaxonomy.html" xlink:title="MslsTaxonomy" target="_parent">
<polygon fill="none" stroke="black" points="364,-387 266,-387 266,-351 364,-351 364,-387"/>
<text text-anchor="middle" x="315" y="-366.1" font-family="Courier,monospace" font-size="11.00">MslsTaxonomy</text>
</a>
</g>
<!-- \\MslsTaxonomy&#45;&gt;\\IMslsRegistryInstance -->
<g id="edge57" class="edge"><title>\\MslsTaxonomy&#45;&gt;\\IMslsRegistryInstance</title>
<path fill="none" stroke="black" stroke-dasharray="1,5" d="M265.902,-375.026C241.878,-377.974 212.195,-381.617 184.344,-385.035"/>
<polygon fill="none" stroke="black" points="183.68,-381.59 174.18,-386.282 184.532,-388.538 183.68,-381.59"/>
</g>
<!-- \\MslsTaxonomy&#45;&gt;\\MslsContentTypes -->
<g id="edge45" class="edge"><title>\\MslsTaxonomy&#45;&gt;\\MslsContentTypes</title>
<path fill="none" stroke="black" d="M265.902,-362.974C237.105,-359.44 200.178,-354.908 168.021,-350.962"/>
<polygon fill="none" stroke="black" points="168.117,-347.447 157.765,-349.703 167.264,-354.395 168.117,-347.447"/>
</g>
<!-- \\MslsPostType -->
<g id="node35" class="node"><title>\\MslsPostType</title>
<a xlink:href="includes.MslsPostType.html" xlink:title="MslsPostType" target="_parent">
<polygon fill="none" stroke="black" points="364,-333 266,-333 266,-297 364,-297 364,-333"/>
<text text-anchor="middle" x="315" y="-312.1" font-family="Courier,monospace" font-size="11.00">MslsPostType</text>
</a>
</g>
<!-- \\MslsPostType&#45;&gt;\\IMslsRegistryInstance -->
<g id="edge59" class="edge"><title>\\MslsPostType&#45;&gt;\\IMslsRegistryInstance</title>
<path fill="none" stroke="black" stroke-dasharray="1,5" d="M269.119,-333.056C241.623,-343.756 205.916,-357.439 174,-369 168.89,-370.851 163.581,-372.739 158.243,-374.614"/>
<polygon fill="none" stroke="black" points="156.927,-371.366 148.636,-377.963 159.231,-377.976 156.927,-371.366"/>
</g>
<!-- \\MslsPostType&#45;&gt;\\MslsContentTypes -->
<g id="edge47" class="edge"><title>\\MslsPostType&#45;&gt;\\MslsContentTypes</title>
<path fill="none" stroke="black" d="M265.902,-321.026C237.105,-324.56 200.178,-329.092 168.021,-333.038"/>
<polygon fill="none" stroke="black" points="167.264,-329.605 157.765,-334.297 168.117,-336.553 167.264,-329.605"/>
</g>
<!-- \\MslsWidget -->
<g id="node36" class="node"><title>\\MslsWidget</title>
<a xlink:href="includes.MslsWidget.html" xlink:title="MslsWidget" target="_parent">
<polygon fill="none" stroke="black" points="1050,-90 966,-90 966,-54 1050,-54 1050,-90"/>
<text text-anchor="middle" x="1008" y="-69.1" font-family="Courier,monospace" font-size="11.00">MslsWidget</text>
</a>
</g>
<!-- \\WP_Widget -->
<g id="node62" class="node"><title>\\WP_Widget</title>
<ellipse fill="none" stroke="black" cx="750" cy="-18" rx="72.1249" ry="18.3848"/>
<text text-anchor="middle" x="750" y="-14.4" font-family="Times Roman,serif" font-size="14.00" fill="gray">\WP_Widget</text>
</g>
<!-- \\MslsWidget&#45;&gt;\\WP_Widget -->
<g id="edge49" class="edge"><title>\\MslsWidget&#45;&gt;\\WP_Widget</title>
<path fill="none" stroke="black" d="M965.974,-63.2038C925.182,-54.666 862.673,-41.5826 815.381,-31.6843"/>
<polygon fill="none" stroke="black" points="816.038,-28.2462 805.533,-29.6232 814.604,-35.0977 816.038,-28.2462"/>
</g>
<!-- \\MslsOptionsQuery&#45;&gt;\\MslsOptions -->
<g id="edge51" class="edge"><title>\\MslsOptionsQuery&#45;&gt;\\MslsOptions</title>
<path fill="none" stroke="black" d="M459.331,-458.174C431.159,-461.849 398.179,-466.151 370.863,-469.714"/>
<polygon fill="none" stroke="black" points="370.156,-466.276 360.692,-471.04 371.061,-473.217 370.156,-466.276"/>
</g>
</g>
</svg>
