<?xml version="1.0" encoding="UTF-8" standalone="no"?>
<!DOCTYPE svg PUBLIC "-//W3C//DTD SVG 1.1//EN"
 "http://www.w3.org/Graphics/SVG/1.1/DTD/svg11.dtd">
<!-- Generated by graphviz version 2.28.0 (20110507.0327)
 -->
<!-- Title: G Pages: 1 -->
<svg width="948pt" height="782pt"
 viewBox="0.00 0.00 948.00 782.00" xmlns="http://www.w3.org/2000/svg" xmlns:xlink="http://www.w3.org/1999/xlink">
<g id="graph1" class="graph" transform="scale(1 1) rotate(0) translate(4 778)">
<title>G</title>
<polygon fill="white" stroke="white" points="-4,5 -4,-778 945,-778 945,5 -4,5"/>
<g id="graph2" class="cluster"><title>cluster_Global</title>
<polyline fill="none" stroke="gray" points="20,-46 920,-46 "/>
<path fill="none" stroke="gray" d="M920,-46C926,-46 932,-52 932,-58"/>
<polyline fill="none" stroke="gray" points="932,-58 932,-754 "/>
<path fill="none" stroke="gray" d="M932,-754C932,-760 926,-766 920,-766"/>
<polyline fill="none" stroke="gray" points="920,-766 20,-766 "/>
<path fill="none" stroke="gray" d="M20,-766C14,-766 8,-760 8,-754"/>
<polyline fill="none" stroke="gray" points="8,-754 8,-58 "/>
<path fill="none" stroke="gray" d="M8,-58C8,-52 14,-46 20,-46"/>
<text text-anchor="middle" x="470" y="-753.2" font-family="Times New Roman,serif" font-size="11.00" fill="gray">\</text>
</g>
<!-- \\MslsCustomFilter -->
<g id="node2" class="node"><title>\\MslsCustomFilter</title>
<polygon fill="none" stroke="black" points="674,-684 580,-684 580,-648 674,-648 674,-684"/>
<text text-anchor="middle" x="627" y="-663.2" font-family="Times New Roman,serif" font-size="11.00">MslsCustomFilter</text>
</g>
<!-- \\MslsMain -->
<g id="node28" class="node"><title>\\MslsMain</title>
<polygon fill="none" stroke="black" points="461,-522 401,-522 401,-486 461,-486 461,-522"/>
<text text-anchor="middle" x="431" y="-501.2" font-family="Times New Roman,serif" font-size="11.00">MslsMain</text>
</g>
<!-- \\MslsCustomFilter&#45;&gt;\\MslsMain -->
<g id="edge3" class="edge"><title>\\MslsCustomFilter&#45;&gt;\\MslsMain</title>
<path fill="none" stroke="black" d="M579.742,-652.823C571.332,-649.171 563.014,-644.62 556,-639 510.979,-602.93 526.955,-569.508 484,-531 479.834,-527.266 475.058,-523.889 470.126,-520.89"/>
<polygon fill="none" stroke="black" points="471.618,-517.714 461.179,-515.902 468.209,-523.829 471.618,-517.714"/>
</g>
<!-- \\MslsAutoloader -->
<g id="node3" class="node"><title>\\MslsAutoloader</title>
<polygon fill="none" stroke="black" points="890,-711 804,-711 804,-675 890,-675 890,-711"/>
<text text-anchor="middle" x="847" y="-690.2" font-family="Times New Roman,serif" font-size="11.00">MslsAutoloader</text>
</g>
<!-- \\MslsOptionsPost -->
<g id="node4" class="node"><title>\\MslsOptionsPost</title>
<polygon fill="none" stroke="black" points="476.5,-576 385.5,-576 385.5,-540 476.5,-540 476.5,-576"/>
<text text-anchor="middle" x="431" y="-555.2" font-family="Times New Roman,serif" font-size="11.00">MslsOptionsPost</text>
</g>
<!-- \\MslsOptions -->
<g id="node5" class="node"><title>\\MslsOptions</title>
<polygon fill="none" stroke="black" points="290.5,-441 219.5,-441 219.5,-405 290.5,-405 290.5,-441"/>
<text text-anchor="middle" x="255" y="-420.2" font-family="Times New Roman,serif" font-size="11.00">MslsOptions</text>
</g>
<!-- \\MslsOptionsPost&#45;&gt;\\MslsOptions -->
<g id="edge5" class="edge"><title>\\MslsOptionsPost&#45;&gt;\\MslsOptions</title>
<path fill="none" stroke="black" d="M392.423,-539.905C387.46,-537.109 382.528,-534.11 378,-531 341.809,-506.147 304.659,-471.733 281.015,-448.486"/>
<polygon fill="none" stroke="black" points="283.394,-445.916 273.831,-441.357 278.464,-450.885 283.394,-445.916"/>
</g>
<!-- \\MslsGetSet -->
<g id="node6" class="node"><title>\\MslsGetSet</title>
<polygon fill="none" stroke="black" points="108,-535 40,-535 40,-499 108,-499 108,-535"/>
<text text-anchor="middle" x="74" y="-514.2" font-family="Times New Roman,serif" font-size="11.00">MslsGetSet</text>
</g>
<!-- \\MslsOptions&#45;&gt;\\MslsGetSet -->
<g id="edge7" class="edge"><title>\\MslsOptions&#45;&gt;\\MslsGetSet</title>
<path fill="none" stroke="black" d="M219.487,-441.124C190.268,-456.468 148.283,-478.516 117.095,-494.894"/>
<polygon fill="none" stroke="black" points="115.423,-491.819 108.197,-499.567 118.677,-498.016 115.423,-491.819"/>
</g>
<!-- \\IMslsRegistryInstance -->
<g id="node41" class="node"><title>\\IMslsRegistryInstance</title>
<polygon fill="none" stroke="black" points="132,-360 16,-360 16,-324 132,-324 132,-360"/>
<text text-anchor="middle" x="74" y="-339.2" font-family="Times New Roman,serif" font-size="11.00">IMslsRegistryInstance</text>
</g>
<!-- \\MslsOptions&#45;&gt;\\IMslsRegistryInstance -->
<g id="edge9" class="edge"><title>\\MslsOptions&#45;&gt;\\IMslsRegistryInstance</title>
<path fill="none" stroke="black" stroke-dasharray="1,5" d="M219.487,-407.382C192.419,-395.134 154.395,-377.927 124.148,-364.24"/>
<polygon fill="none" stroke="black" points="125.585,-361.049 115.032,-360.115 122.699,-367.426 125.585,-361.049"/>
</g>
<!-- \\MslsOptionsQueryPostType -->
<g id="node7" class="node"><title>\\MslsOptionsQueryPostType</title>
<polygon fill="none" stroke="black" points="697.5,-198 556.5,-198 556.5,-162 697.5,-162 697.5,-198"/>
<text text-anchor="middle" x="627" y="-177.2" font-family="Times New Roman,serif" font-size="11.00">MslsOptionsQueryPostType</text>
</g>
<!-- \\MslsOptionsQuery -->
<g id="node12" class="node"><title>\\MslsOptionsQuery</title>
<polygon fill="none" stroke="black" points="480.5,-333 381.5,-333 381.5,-297 480.5,-297 480.5,-333"/>
<text text-anchor="middle" x="431" y="-312.2" font-family="Times New Roman,serif" font-size="11.00">MslsOptionsQuery</text>
</g>
<!-- \\MslsOptionsQueryPostType&#45;&gt;\\MslsOptionsQuery -->
<g id="edge11" class="edge"><title>\\MslsOptionsQueryPostType&#45;&gt;\\MslsOptionsQuery</title>
<path fill="none" stroke="black" d="M573.065,-198.117C567.163,-200.807 561.355,-203.773 556,-207 517.609,-230.135 479.666,-265.516 456.063,-289.42"/>
<polygon fill="none" stroke="black" points="453.395,-287.144 448.921,-296.748 458.407,-292.029 453.395,-287.144"/>
</g>
<!-- \\MslsPostTagClassic -->
<g id="node8" class="node"><title>\\MslsPostTagClassic</title>
<polygon fill="none" stroke="black" points="900,-630 794,-630 794,-594 900,-594 900,-630"/>
<text text-anchor="middle" x="847" y="-609.2" font-family="Times New Roman,serif" font-size="11.00">MslsPostTagClassic</text>
</g>
<!-- \\MslsPostTag -->
<g id="node17" class="node"><title>\\MslsPostTag</title>
<polygon fill="none" stroke="black" points="664,-630 590,-630 590,-594 664,-594 664,-630"/>
<text text-anchor="middle" x="627" y="-609.2" font-family="Times New Roman,serif" font-size="11.00">MslsPostTag</text>
</g>
<!-- \\MslsPostTagClassic&#45;&gt;\\MslsPostTag -->
<g id="edge13" class="edge"><title>\\MslsPostTagClassic&#45;&gt;\\MslsPostTag</title>
<path fill="none" stroke="black" d="M793.784,-612C757.482,-612 709.523,-612 674.531,-612"/>
<polygon fill="none" stroke="black" points="674.115,-608.5 664.115,-612 674.115,-615.5 674.115,-608.5"/>
</g>
<!-- \\MslsWidget -->
<g id="node9" class="node"><title>\\MslsWidget</title>
<polygon fill="none" stroke="black" points="881.5,-90 812.5,-90 812.5,-54 881.5,-54 881.5,-90"/>
<text text-anchor="middle" x="847" y="-69.2" font-family="Times New Roman,serif" font-size="11.00">MslsWidget</text>
</g>
<!-- \\WP_Widget -->
<g id="node49" class="node"><title>\\WP_Widget</title>
<ellipse fill="none" stroke="black" cx="627" cy="-18" rx="58.4896" ry="18"/>
<text text-anchor="middle" x="627" y="-14.3" font-family="Times New Roman,serif" font-size="14.00" fill="gray">\WP_Widget</text>
</g>
<!-- \\MslsWidget&#45;&gt;\\WP_Widget -->
<g id="edge15" class="edge"><title>\\MslsWidget&#45;&gt;\\WP_Widget</title>
<path fill="none" stroke="black" d="M812.415,-63.6808C777.88,-55.1261 723.532,-41.664 682.767,-31.5661"/>
<polygon fill="none" stroke="black" points="683.527,-28.1487 672.979,-29.1415 681.844,-34.9433 683.527,-28.1487"/>
</g>
<!-- \\MslsOptionsQueryDay -->
<g id="node10" class="node"><title>\\MslsOptionsQueryDay</title>
<polygon fill="none" stroke="black" points="686,-414 568,-414 568,-378 686,-378 686,-414"/>
<text text-anchor="middle" x="627" y="-393.2" font-family="Times New Roman,serif" font-size="11.00">MslsOptionsQueryDay</text>
</g>
<!-- \\MslsOptionsQueryDay&#45;&gt;\\MslsOptionsQuery -->
<g id="edge17" class="edge"><title>\\MslsOptionsQueryDay&#45;&gt;\\MslsOptionsQuery</title>
<path fill="none" stroke="black" d="M578.448,-377.972C570.916,-375.027 563.23,-371.967 556,-369 531.386,-358.899 504.267,-347.16 481.684,-337.213"/>
<polygon fill="none" stroke="black" points="482.865,-333.908 472.304,-333.069 480.037,-340.311 482.865,-333.908"/>
</g>
<!-- \\MslsAdminIcon -->
<g id="node11" class="node"><title>\\MslsAdminIcon</title>
<polygon fill="none" stroke="black" points="670,-90 584,-90 584,-54 670,-54 670,-90"/>
<text text-anchor="middle" x="627" y="-69.2" font-family="Times New Roman,serif" font-size="11.00">MslsAdminIcon</text>
</g>
<!-- \\MslsOptionsQuery&#45;&gt;\\MslsOptions -->
<g id="edge19" class="edge"><title>\\MslsOptionsQuery&#45;&gt;\\MslsOptions</title>
<path fill="none" stroke="black" d="M403.798,-333.031C378.975,-349.893 340.47,-375.483 306,-396 303.812,-397.302 301.557,-398.617 299.27,-399.927"/>
<polygon fill="none" stroke="black" points="297.373,-396.979 290.371,-404.93 300.803,-403.08 297.373,-396.979"/>
</g>
<!-- \\MslsLinkTextOnly -->
<g id="node13" class="node"><title>\\MslsLinkTextOnly</title>
<polygon fill="none" stroke="black" points="480,-738 382,-738 382,-702 480,-702 480,-738"/>
<text text-anchor="middle" x="431" y="-717.2" font-family="Times New Roman,serif" font-size="11.00">MslsLinkTextOnly</text>
</g>
<!-- \\MslsLink -->
<g id="node31" class="node"><title>\\MslsLink</title>
<polygon fill="none" stroke="black" points="283.5,-630 226.5,-630 226.5,-594 283.5,-594 283.5,-630"/>
<text text-anchor="middle" x="255" y="-609.2" font-family="Times New Roman,serif" font-size="11.00">MslsLink</text>
</g>
<!-- \\MslsLinkTextOnly&#45;&gt;\\MslsLink -->
<g id="edge21" class="edge"><title>\\MslsLinkTextOnly&#45;&gt;\\MslsLink</title>
<path fill="none" stroke="black" d="M393.92,-701.905C388.532,-699.019 383.083,-695.995 378,-693 347.568,-675.066 314.233,-652.74 290.11,-636.072"/>
<polygon fill="none" stroke="black" points="291.872,-633.034 281.662,-630.205 287.88,-638.784 291.872,-633.034"/>
</g>
<!-- \\MslsOutput -->
<g id="node14" class="node"><title>\\MslsOutput</title>
<polygon fill="none" stroke="black" points="661,-576 593,-576 593,-540 661,-540 661,-576"/>
<text text-anchor="middle" x="627" y="-555.2" font-family="Times New Roman,serif" font-size="11.00">MslsOutput</text>
</g>
<!-- \\MslsOutput&#45;&gt;\\MslsMain -->
<g id="edge23" class="edge"><title>\\MslsOutput&#45;&gt;\\MslsMain</title>
<path fill="none" stroke="black" d="M592.65,-548.717C558.928,-539.331 506.831,-524.829 471.166,-514.902"/>
<polygon fill="none" stroke="black" points="471.69,-511.415 461.118,-512.105 469.813,-518.158 471.69,-511.415"/>
</g>
<!-- \\MslsBlogCollection -->
<g id="node15" class="node"><title>\\MslsBlogCollection</title>
<polygon fill="none" stroke="black" points="305.5,-387 204.5,-387 204.5,-351 305.5,-351 305.5,-387"/>
<text text-anchor="middle" x="255" y="-366.2" font-family="Times New Roman,serif" font-size="11.00">MslsBlogCollection</text>
</g>
<!-- \\MslsBlogCollection&#45;&gt;\\IMslsRegistryInstance -->
<g id="edge25" class="edge"><title>\\MslsBlogCollection&#45;&gt;\\IMslsRegistryInstance</title>
<path fill="none" stroke="black" stroke-dasharray="1,5" d="M204.139,-361.479C184.936,-358.583 162.683,-355.226 142.116,-352.124"/>
<polygon fill="none" stroke="black" points="142.585,-348.655 132.175,-350.624 141.541,-355.577 142.585,-348.655"/>
</g>
<!-- \\MslsRegistry -->
<g id="node16" class="node"><title>\\MslsRegistry</title>
<polygon fill="none" stroke="black" points="884,-522 810,-522 810,-486 884,-486 884,-522"/>
<text text-anchor="middle" x="847" y="-501.2" font-family="Times New Roman,serif" font-size="11.00">MslsRegistry</text>
</g>
<!-- \\MslsPostTag&#45;&gt;\\MslsMain -->
<g id="edge27" class="edge"><title>\\MslsPostTag&#45;&gt;\\MslsMain</title>
<path fill="none" stroke="black" d="M589.89,-600.239C578.732,-596.038 566.597,-590.869 556,-585 521.009,-565.619 517.865,-552.288 484,-531 479.592,-528.229 474.867,-525.486 470.13,-522.872"/>
<polygon fill="none" stroke="black" points="471.55,-519.662 461.082,-518.028 468.246,-525.834 471.55,-519.662"/>
</g>
<!-- \\MslsCustomColumnTaxonomy -->
<g id="node18" class="node"><title>\\MslsCustomColumnTaxonomy</title>
<polygon fill="none" stroke="black" points="923,-576 771,-576 771,-540 923,-540 923,-576"/>
<text text-anchor="middle" x="847" y="-555.2" font-family="Times New Roman,serif" font-size="11.00">MslsCustomColumnTaxonomy</text>
</g>
<!-- \\MslsCustomColumn -->
<g id="node29" class="node"><title>\\MslsCustomColumn</title>
<polygon fill="none" stroke="black" points="679.5,-522 574.5,-522 574.5,-486 679.5,-486 679.5,-522"/>
<text text-anchor="middle" x="627" y="-501.2" font-family="Times New Roman,serif" font-size="11.00">MslsCustomColumn</text>
</g>
<!-- \\MslsCustomColumnTaxonomy&#45;&gt;\\MslsCustomColumn -->
<g id="edge29" class="edge"><title>\\MslsCustomColumnTaxonomy&#45;&gt;\\MslsCustomColumn</title>
<path fill="none" stroke="black" d="M773.106,-539.944C745.996,-533.228 715.527,-525.681 689.534,-519.242"/>
<polygon fill="none" stroke="black" points="690.355,-515.84 679.807,-516.833 688.672,-522.635 690.355,-515.84"/>
</g>
<!-- \\MslsOptionsQueryYear -->
<g id="node19" class="node"><title>\\MslsOptionsQueryYear</title>
<polygon fill="none" stroke="black" points="688,-360 566,-360 566,-324 688,-324 688,-360"/>
<text text-anchor="middle" x="627" y="-339.2" font-family="Times New Roman,serif" font-size="11.00">MslsOptionsQueryYear</text>
</g>
<!-- \\MslsOptionsQueryYear&#45;&gt;\\MslsOptionsQuery -->
<g id="edge31" class="edge"><title>\\MslsOptionsQueryYear&#45;&gt;\\MslsOptionsQuery</title>
<path fill="none" stroke="black" d="M565.946,-333.642C541.993,-330.308 514.505,-326.483 490.69,-323.168"/>
<polygon fill="none" stroke="black" points="491.115,-319.694 480.728,-321.782 490.15,-326.627 491.115,-319.694"/>
</g>
<!-- \\MslsOptionsQueryAuthor -->
<g id="node20" class="node"><title>\\MslsOptionsQueryAuthor</title>
<polygon fill="none" stroke="black" points="692,-306 562,-306 562,-270 692,-270 692,-306"/>
<text text-anchor="middle" x="627" y="-285.2" font-family="Times New Roman,serif" font-size="11.00">MslsOptionsQueryAuthor</text>
</g>
<!-- \\MslsOptionsQueryAuthor&#45;&gt;\\MslsOptionsQuery -->
<g id="edge33" class="edge"><title>\\MslsOptionsQueryAuthor&#45;&gt;\\MslsOptionsQuery</title>
<path fill="none" stroke="black" d="M561.939,-296.916C538.969,-300.113 513.203,-303.699 490.709,-306.829"/>
<polygon fill="none" stroke="black" points="490.048,-303.387 480.626,-308.232 491.013,-310.321 490.048,-303.387"/>
</g>
<!-- \\MslsOptionsTax -->
<g id="node21" class="node"><title>\\MslsOptionsTax</title>
<polygon fill="none" stroke="black" points="475.5,-211 386.5,-211 386.5,-175 475.5,-175 475.5,-211"/>
<text text-anchor="middle" x="431" y="-190.2" font-family="Times New Roman,serif" font-size="11.00">MslsOptionsTax</text>
</g>
<!-- \\MslsOptionsTax&#45;&gt;\\MslsOptions -->
<g id="edge35" class="edge"><title>\\MslsOptionsTax&#45;&gt;\\MslsOptions</title>
<path fill="none" stroke="black" d="M419.62,-211.189C392.666,-258.241 321.471,-381.331 306,-396 303.886,-398.005 301.594,-399.906 299.194,-401.701"/>
<polygon fill="none" stroke="black" points="297.068,-398.913 290.716,-407.392 300.969,-404.725 297.068,-398.913"/>
</g>
<!-- \\MslsOptionsTaxTerm -->
<g id="node22" class="node"><title>\\MslsOptionsTaxTerm</title>
<polygon fill="none" stroke="black" points="683.5,-144 570.5,-144 570.5,-108 683.5,-108 683.5,-144"/>
<text text-anchor="middle" x="627" y="-123.2" font-family="Times New Roman,serif" font-size="11.00">MslsOptionsTaxTerm</text>
</g>
<!-- \\MslsOptionsTaxTerm&#45;&gt;\\MslsOptionsTax -->
<g id="edge37" class="edge"><title>\\MslsOptionsTaxTerm&#45;&gt;\\MslsOptionsTax</title>
<path fill="none" stroke="black" d="M573.756,-144.043C546.35,-153.508 512.838,-165.082 485.28,-174.599"/>
<polygon fill="none" stroke="black" points="484.11,-171.3 475.801,-177.873 486.395,-177.917 484.11,-171.3"/>
</g>
<!-- \\MslsLinkTextImage -->
<g id="node23" class="node"><title>\\MslsLinkTextImage</title>
<polygon fill="none" stroke="black" points="483.5,-684 378.5,-684 378.5,-648 483.5,-648 483.5,-684"/>
<text text-anchor="middle" x="431" y="-663.2" font-family="Times New Roman,serif" font-size="11.00">MslsLinkTextImage</text>
</g>
<!-- \\MslsLinkTextImage&#45;&gt;\\MslsLink -->
<g id="edge39" class="edge"><title>\\MslsLinkTextImage&#45;&gt;\\MslsLink</title>
<path fill="none" stroke="black" d="M378.265,-649.944C350.971,-641.474 318.103,-631.273 293.322,-623.583"/>
<polygon fill="none" stroke="black" points="294.163,-620.179 283.575,-620.558 292.089,-626.865 294.163,-620.179"/>
</g>
<!-- \\MslsLinkImageOnly -->
<g id="node24" class="node"><title>\\MslsLinkImageOnly</title>
<polygon fill="none" stroke="black" points="484,-630 378,-630 378,-594 484,-594 484,-630"/>
<text text-anchor="middle" x="431" y="-609.2" font-family="Times New Roman,serif" font-size="11.00">MslsLinkImageOnly</text>
</g>
<!-- \\MslsLinkImageOnly&#45;&gt;\\MslsLink -->
<g id="edge41" class="edge"><title>\\MslsLinkImageOnly&#45;&gt;\\MslsLink</title>
<path fill="none" stroke="black" d="M377.794,-612C350.816,-612 318.495,-612 293.929,-612"/>
<polygon fill="none" stroke="black" points="293.914,-608.5 283.914,-612 293.914,-615.5 293.914,-608.5"/>
</g>
<!-- \\MslsAdmin -->
<g id="node25" class="node"><title>\\MslsAdmin</title>
<polygon fill="none" stroke="black" points="660.5,-468 593.5,-468 593.5,-432 660.5,-432 660.5,-468"/>
<text text-anchor="middle" x="627" y="-447.2" font-family="Times New Roman,serif" font-size="11.00">MslsAdmin</text>
</g>
<!-- \\MslsAdmin&#45;&gt;\\MslsMain -->
<g id="edge43" class="edge"><title>\\MslsAdmin&#45;&gt;\\MslsMain</title>
<path fill="none" stroke="black" d="M593.091,-459.16C559.441,-468.527 507.165,-483.078 471.349,-493.047"/>
<polygon fill="none" stroke="black" points="469.952,-489.803 461.257,-495.856 471.829,-496.546 469.952,-489.803"/>
</g>
<!-- \\MslsMetaBox -->
<g id="node26" class="node"><title>\\MslsMetaBox</title>
<polygon fill="none" stroke="black" points="666.5,-738 587.5,-738 587.5,-702 666.5,-702 666.5,-738"/>
<text text-anchor="middle" x="627" y="-717.2" font-family="Times New Roman,serif" font-size="11.00">MslsMetaBox</text>
</g>
<!-- \\MslsMetaBox&#45;&gt;\\MslsMain -->
<g id="edge45" class="edge"><title>\\MslsMetaBox&#45;&gt;\\MslsMain</title>
<path fill="none" stroke="black" d="M587.314,-711.123C576.166,-707.069 564.683,-701.259 556,-693 498.909,-638.699 537.998,-588.378 484,-531 479.936,-526.682 475.026,-522.93 469.867,-519.71"/>
<polygon fill="none" stroke="black" points="471.491,-516.609 461.053,-514.789 468.078,-522.72 471.491,-516.609"/>
</g>
<!-- \\MslsPostType -->
<g id="node27" class="node"><title>\\MslsPostType</title>
<polygon fill="none" stroke="black" points="295,-279 215,-279 215,-243 295,-243 295,-279"/>
<text text-anchor="middle" x="255" y="-258.2" font-family="Times New Roman,serif" font-size="11.00">MslsPostType</text>
</g>
<!-- \\MslsContentTypes -->
<g id="node33" class="node"><title>\\MslsContentTypes</title>
<polygon fill="none" stroke="black" points="123.5,-306 24.5,-306 24.5,-270 123.5,-270 123.5,-306"/>
<text text-anchor="middle" x="74" y="-285.2" font-family="Times New Roman,serif" font-size="11.00">MslsContentTypes</text>
</g>
<!-- \\MslsPostType&#45;&gt;\\MslsContentTypes -->
<g id="edge47" class="edge"><title>\\MslsPostType&#45;&gt;\\MslsContentTypes</title>
<path fill="none" stroke="black" d="M214.718,-266.925C190.991,-270.504 160.303,-275.133 133.734,-279.141"/>
<polygon fill="none" stroke="black" points="133.142,-275.69 123.776,-280.643 134.186,-282.612 133.142,-275.69"/>
</g>
<!-- \\MslsPostType&#45;&gt;\\IMslsRegistryInstance -->
<g id="edge49" class="edge"><title>\\MslsPostType&#45;&gt;\\IMslsRegistryInstance</title>
<path fill="none" stroke="black" stroke-dasharray="1,5" d="M214.718,-278.776C188.089,-290.826 152.691,-306.844 124.188,-319.742"/>
<polygon fill="none" stroke="black" points="122.477,-316.674 114.809,-323.986 125.363,-323.052 122.477,-316.674"/>
</g>
<!-- \\MslsCustomColumn&#45;&gt;\\MslsMain -->
<g id="edge51" class="edge"><title>\\MslsCustomColumn&#45;&gt;\\MslsMain</title>
<path fill="none" stroke="black" d="M574.266,-504C541.977,-504 501.06,-504 471.404,-504"/>
<polygon fill="none" stroke="black" points="471.025,-500.5 461.025,-504 471.024,-507.5 471.025,-500.5"/>
</g>
<!-- \\MslsOptionsTaxTermCategory -->
<g id="node30" class="node"><title>\\MslsOptionsTaxTermCategory</title>
<polygon fill="none" stroke="black" points="923.5,-468 770.5,-468 770.5,-432 923.5,-432 923.5,-468"/>
<text text-anchor="middle" x="847" y="-447.2" font-family="Times New Roman,serif" font-size="11.00">MslsOptionsTaxTermCategory</text>
</g>
<!-- \\MslsOptionsTaxTermCategory&#45;&gt;\\MslsOptionsTaxTerm -->
<g id="edge53" class="edge"><title>\\MslsOptionsTaxTermCategory&#45;&gt;\\MslsOptionsTaxTerm</title>
<path fill="none" stroke="black" d="M780.595,-431.962C776.721,-429.366 773.133,-426.397 770,-423 685.798,-331.709 780.972,-245.41 698,-153 696.211,-151.007 694.257,-149.16 692.177,-147.449"/>
<polygon fill="none" stroke="black" points="693.819,-144.327 683.61,-141.495 689.825,-150.076 693.819,-144.327"/>
</g>
<!-- \\MslsLink&#45;&gt;\\MslsGetSet -->
<g id="edge55" class="edge"><title>\\MslsLink&#45;&gt;\\MslsGetSet</title>
<path fill="none" stroke="black" d="M226.424,-597.364C197.29,-581.903 150.988,-557.329 117.247,-539.422"/>
<polygon fill="none" stroke="black" points="118.562,-536.157 108.088,-534.561 115.28,-542.34 118.562,-536.157"/>
</g>
<!-- \\MslsLanguageArray -->
<g id="node32" class="node"><title>\\MslsLanguageArray</title>
<polygon fill="none" stroke="black" points="900.5,-360 793.5,-360 793.5,-324 900.5,-324 900.5,-360"/>
<text text-anchor="middle" x="847" y="-339.2" font-family="Times New Roman,serif" font-size="11.00">MslsLanguageArray</text>
</g>
<!-- \\MslsSqlCacher -->
<g id="node34" class="node"><title>\\MslsSqlCacher</title>
<polygon fill="none" stroke="black" points="888.5,-306 805.5,-306 805.5,-270 888.5,-270 888.5,-306"/>
<text text-anchor="middle" x="847" y="-285.2" font-family="Times New Roman,serif" font-size="11.00">MslsSqlCacher</text>
</g>
<!-- \\MslsBlog -->
<g id="node35" class="node"><title>\\MslsBlog</title>
<polygon fill="none" stroke="black" points="876,-252 818,-252 818,-216 876,-216 876,-252"/>
<text text-anchor="middle" x="847" y="-231.2" font-family="Times New Roman,serif" font-size="11.00">MslsBlog</text>
</g>
<!-- \\MslsJson -->
<g id="node36" class="node"><title>\\MslsJson</title>
<polygon fill="none" stroke="black" points="875.5,-198 818.5,-198 818.5,-162 875.5,-162 875.5,-198"/>
<text text-anchor="middle" x="847" y="-177.2" font-family="Times New Roman,serif" font-size="11.00">MslsJson</text>
</g>
<!-- \\MslsPlugin -->
<g id="node37" class="node"><title>\\MslsPlugin</title>
<polygon fill="none" stroke="black" points="879.5,-144 814.5,-144 814.5,-108 879.5,-108 879.5,-144"/>
<text text-anchor="middle" x="847" y="-123.2" font-family="Times New Roman,serif" font-size="11.00">MslsPlugin</text>
</g>
<!-- \\MslsOptionsQueryMonth -->
<g id="node38" class="node"><title>\\MslsOptionsQueryMonth</title>
<polygon fill="none" stroke="black" points="691,-252 563,-252 563,-216 691,-216 691,-252"/>
<text text-anchor="middle" x="627" y="-231.2" font-family="Times New Roman,serif" font-size="11.00">MslsOptionsQueryMonth</text>
</g>
<!-- \\MslsOptionsQueryMonth&#45;&gt;\\MslsOptionsQuery -->
<g id="edge57" class="edge"><title>\\MslsOptionsQueryMonth&#45;&gt;\\MslsOptionsQuery</title>
<path fill="none" stroke="black" d="M578.448,-252.028C570.916,-254.973 563.23,-258.033 556,-261 531.386,-271.101 504.267,-282.84 481.684,-292.787"/>
<polygon fill="none" stroke="black" points="480.037,-289.689 472.304,-296.931 482.865,-296.092 480.037,-289.689"/>
</g>
<!-- \\MslsAdminIconTaxonomy -->
<g id="node39" class="node"><title>\\MslsAdminIconTaxonomy</title>
<polygon fill="none" stroke="black" points="913.5,-414 780.5,-414 780.5,-378 913.5,-378 913.5,-414"/>
<text text-anchor="middle" x="847" y="-393.2" font-family="Times New Roman,serif" font-size="11.00">MslsAdminIconTaxonomy</text>
</g>
<!-- \\MslsAdminIconTaxonomy&#45;&gt;\\MslsAdminIcon -->
<g id="edge59" class="edge"><title>\\MslsAdminIconTaxonomy&#45;&gt;\\MslsAdminIcon</title>
<path fill="none" stroke="black" d="M780.595,-377.962C776.721,-375.366 773.133,-372.397 770,-369 685.798,-277.709 780.972,-191.41 698,-99 692.915,-93.3362 686.503,-88.8513 679.637,-85.3021"/>
<polygon fill="none" stroke="black" points="680.629,-81.9119 670.072,-81.0196 677.769,-88.3007 680.629,-81.9119"/>
</g>
<!-- \\MslsTaxonomy -->
<g id="node40" class="node"><title>\\MslsTaxonomy</title>
<polygon fill="none" stroke="black" points="297,-333 213,-333 213,-297 297,-297 297,-333"/>
<text text-anchor="middle" x="255" y="-312.2" font-family="Times New Roman,serif" font-size="11.00">MslsTaxonomy</text>
</g>
<!-- \\MslsTaxonomy&#45;&gt;\\MslsContentTypes -->
<g id="edge61" class="edge"><title>\\MslsTaxonomy&#45;&gt;\\MslsContentTypes</title>
<path fill="none" stroke="black" d="M212.934,-308.806C189.516,-305.273 159.767,-300.786 133.896,-296.884"/>
<polygon fill="none" stroke="black" points="134.233,-293.395 123.823,-295.364 133.189,-300.317 134.233,-293.395"/>
</g>
<!-- \\MslsTaxonomy&#45;&gt;\\IMslsRegistryInstance -->
<g id="edge63" class="edge"><title>\\MslsTaxonomy&#45;&gt;\\IMslsRegistryInstance</title>
<path fill="none" stroke="black" stroke-dasharray="1,5" d="M212.934,-321.194C191.981,-324.355 165.96,-328.28 142.183,-331.866"/>
<polygon fill="none" stroke="black" points="141.518,-328.427 132.152,-333.379 142.562,-335.349 141.518,-328.427"/>
</g>
</g>
</svg>
